<?xml version="1.0" encoding="UTF-8" standalone="no"?>
<svg
   xmlns:dc="http://purl.org/dc/elements/1.1/"
   xmlns:cc="http://creativecommons.org/ns#"
   xmlns:rdf="http://www.w3.org/1999/02/22-rdf-syntax-ns#"
   xmlns:svg="http://www.w3.org/2000/svg"
   xmlns="http://www.w3.org/2000/svg"
   xmlns:sodipodi="http://sodipodi.sourceforge.net/DTD/sodipodi-0.dtd"
   xmlns:inkscape="http://www.inkscape.org/namespaces/inkscape"
   version="1.1"
   width="322.5574"
   height="334.37714"
   overflow="visible"
   viewBox="0 0 322.5574 334.37714"
   enable-background="new 0.0 0.0 1003.0 557.0"
   id="svg6208"
   inkscape:version="0.48.1 "
   sodipodi:docname="031_DW.svg"
   style="overflow:visible">
  <metadata
     id="metadata6458">
    <rdf:RDF>
      <cc:Work
         rdf:about="">
        <dc:format>image/svg+xml</dc:format>
        <dc:type
           rdf:resource="http://purl.org/dc/dcmitype/StillImage" />
      </cc:Work>
    </rdf:RDF>
  </metadata>
  <sodipodi:namedview
     pagecolor="#ffffff"
     bordercolor="#666666"
     borderopacity="1"
     objecttolerance="10"
     gridtolerance="10"
     guidetolerance="10"
     inkscape:pageopacity="0"
     inkscape:pageshadow="2"
     inkscape:window-width="640"
     inkscape:window-height="480"
     id="namedview6456"
     showgrid="false"
     fit-margin-top="0"
     fit-margin-left="0"
     fit-margin-right="0"
     fit-margin-bottom="0"
     inkscape:zoom="0.47856431"
     inkscape:cx="501.49605"
     inkscape:cy="55.90263"
     inkscape:window-x="0"
     inkscape:window-y="0"
     inkscape:window-maximized="0"
     inkscape:current-layer="svg6208" />
  <defs
     id="defs6210" />
  <g
     id="g6214"
     transform="translate(-0.00394737,-0.02549019)">
    <g
       id="g6216">
      <g
         id="g6218">
        <path
           d="m 190.65,281.1 55.8,-2 5.35,2.7 c 3.99999,2.16664 7.11666,4.19997 9.35,6.1 2.7,2.33334 3,5.48333 0.9,9.45 -2.13334,4 -5.36668,6.20002 -9.7,6.6 -3.23333,0.26667 -8.55,1.56666 -15.95,3.9 -8.2,2.5667 -13.43334,4.05002 -15.7,4.45 -3.7,0.66664 -10.45,-0.61668 -20.25,-3.85 -7.73333,-2.56667 -14.08333,-5.1 -19.05,-7.6 -3.13334,-1.53335 -4.88334,-3.73336 -5.25,-6.6 -0.33333,-2.30002 0.2,-4.71667 1.6,-7.25 l 12.9,-5.9 z"
           id="path6220"
           inkscape:connector-curvature="0"
           style="fill:#3396cd;stroke-linecap:round;stroke-linejoin:round" />
        <path
           d="m 190.65,281.1 55.8,-2 2.75,1.3 6.1,3.4 c -6.66667,-1.10002 -13.78334,-1.55 -21.35,-1.35 -8.3,0.2 -15.3,1.21666 -21,3.05 -6.56667,2.06668 -10.56667,5 -12,8.8 -1.66667,4.39998 0.2,9.73333 5.6,16 -4.46666,-1.23332 -9.33333,-2.86665 -14.6,-4.9 -4.53334,-1.76667 -8.05,-3.28333 -10.55,-4.55 -3.13334,-1.53335 -4.88334,-3.73336 -5.25,-6.6 -0.33333,-2.30002 0.2,-4.71667 1.6,-7.25 l 12.9,-5.9 z"
           id="path6222"
           inkscape:connector-curvature="0"
           style="fill:#2880ae;stroke-linecap:round;stroke-linejoin:round" />
        <path
           d="m 252.45,239.4 c 7.3,8.26667 10.06666,14.38334 8.3,18.35 -3.36667,7.63333 -6.53334,13.28333 -9.5,16.95 -5.43333,6.66667 -12.05,10.43333 -19.85,11.3 -9.06667,1 -16.98334,0.73334 -23.75,-0.8 l -8.1,-1.8 -10.5,-0.95 51.95,-54.25 3.7,3.3 7.75,7.9 z"
           id="path6224"
           inkscape:connector-curvature="0"
           style="fill:#3396cd;stroke-linecap:round;stroke-linejoin:round" />
        <path
           d="m 241,228.2 3.7,3.3 7.75,7.9 c 7.3,8.26667 10.06666,14.38334 8.3,18.35 l -2.4,5.3 c -9.8,-1.03334 -19.93333,0.51668 -30.4,4.65 -10.96666,4.33336 -18.21666,10.0667 -21.75,17.2 l -7.45,-1.65 -9.7,-0.8 L 241,228.2 z"
           id="path6226"
           inkscape:connector-curvature="0"
           style="fill:#2880ae;stroke-linecap:round;stroke-linejoin:round" />
        <path
           d="m 268.7,294.95 c 2.76667,2.76667 5.31666,6.06666 7.65,9.9 L 263.1,304.4 c -4.1,-0.53333 -7.41667,-1.33332 -9.95,-2.4 0.76667,-3.13333 2.13334,-5.88333 4.1,-8.25 1.80002,-2.19998 3.35,-3.26666 4.65,-3.2 1.7,0.1 3.96667,1.56667 6.8,4.4 z"
           id="path6228"
           inkscape:connector-curvature="0"
           style="fill:#eeeeef;stroke-linecap:round;stroke-linejoin:round" />
        <path
           d="m 220.3,310.8 c 0.76667,-2.33336 2.81667,-5 6.15,-8 3.36667,-3 5.9,-4.4 7.6,-4.2 1.73333,0.16666 4.85,2.51667 9.35,7.05 4.46667,4.53335 6.86668,7.73336 7.2,9.6 -3.76667,0.16666 -9.03333,-0.23334 -15.8,-1.2 -6.93333,-1 -11.76666,-2.08336 -14.5,-3.25 z"
           id="path6230"
           inkscape:connector-curvature="0"
           style="fill:#eeeeef;stroke-linecap:round;stroke-linejoin:round" />
        <path
           d="m 108.8,171.95 -33.7,21.9 c 0.566664,-3.66667 1.01666,-9.65 1.35,-17.95 0.26667,-6.33333 0.4,-11.75 0.4,-16.25 0,-3.1 1.5,-5.69999 4.5,-7.8 2.966666,-2.1 5.18333,-2.11666 6.65,-0.05 1.700005,2.3 3.966675,4.53334 6.8,6.7 4.16667,3.16667 8.18333,4.8 12.05,4.9 3.7,0.1 5.13334,1.55 4.3,4.35 -0.4,1.43333 -1.18333,2.83333 -2.35,4.2 z"
           id="path6232"
           inkscape:connector-curvature="0"
           style="fill:#3396cd;stroke-linecap:round;stroke-linejoin:round" />
        <path
           d="m 106.85,163.4 c 3.7,0.1 5.13334,1.55 4.3,4.35 -0.4,1.43333 -1.18333,2.83333 -2.35,4.2 l -5.6,3.65 c -3.766666,-2.86666 -7.516666,-6.76667 -11.25,-11.7 -3.133334,-4.2 -5.05,-7.36667 -5.75,-9.5 -0.46667,-1.5 -0.383334,-2.46667 0.25,-2.9 0.599995,-0.43333 1.116666,-0.33333 1.55,0.3 1.700005,2.3 3.966675,4.53334 6.8,6.7 4.16667,3.16667 8.18333,4.8 12.05,4.9 z"
           id="path6234"
           inkscape:connector-curvature="0"
           style="fill:#2880ae;stroke-linecap:round;stroke-linejoin:round" />
        <path
           d="m 118.1,110.6 c 2.83333,-1.83334 5.28333,-2.06667 7.35,-0.7 2.26667,1.5 5.98333,3.63333 11.15,6.4 5.7,3.03334 10.08333,5.16667 13.15,6.4 l 3.55,4.75 -27.7,29.8 c -2.36666,1.90001 -4.66667,3.3 -6.9,4.2 -4.40001,1.83333 -6.16667,0.3 -5.3,-4.6 0.9,-5.06666 1.33334,-12.25 1.3,-21.55 -0.0333,-6.26666 -0.25,-12.04999 -0.65,-17.35 -0.23333,-3 1.11666,-5.45 4.05,-7.35 z"
           id="path6236"
           inkscape:connector-curvature="0"
           style="fill:#3396cd;stroke-linecap:round;stroke-linejoin:round" />
        <path
           d="m 153.3,127.45 -6.4,6.9 c -4.30001,-2.93333 -8.96668,-6.83333 -14,-11.7 -4.63334,-4.5 -7.25,-7.44999 -7.85,-8.85 -0.46666,-1.06667 -0.56666,-2.05001 -0.3,-2.95 0.23333,-0.8 0.46666,-1.11666 0.7,-0.95 2.26667,1.5 5.98333,3.63333 11.15,6.4 5.7,3.03334 10.08333,5.16667 13.15,6.4 l 3.55,4.75 z"
           id="path6238"
           inkscape:connector-curvature="0"
           style="fill:#2880ae;stroke-linecap:round;stroke-linejoin:round" />
        <path
           d="m 151.7,127.35 -10.6,166.4 c -12.43333,0.1 -23.76666,-2.01666 -34,-6.35 -9.7,-4.13334 -16.31667,-11.6 -19.85,-22.4 -2.933334,-8.96667 -3.63333,-19.85 -2.1,-32.65 1.23333,-10.33332 3.7,-20.78332 7.4,-31.35 3.23333,-9.13333 6.16667,-15.31667 8.8,-18.55 2.03333,-2.5 10.68333,-11.68334 25.95,-27.55 13.7,-14.16668 21.83333,-23.35001 24.4,-27.55 z"
           id="path6240"
           inkscape:connector-curvature="0"
           style="fill:#ffffff;stroke-linecap:round;stroke-linejoin:round" />
        <path
           d="m 206.35,108.05 c 35.43334,-10.16666 53.41666,-11.06666 53.95,-2.7 1.36666,20.83333 1.13332,39.96667 -0.7,57.4 -3.3,31.8 -11.45002,58.13333 -24.45,79 -9.93334,15.93332 -22.25,27.9833 -36.95,36.15 -14.86667,8.26666 -33.9,13.54998 -57.1,15.85 -10.93333,1.06668 -20.41667,-2.61664 -28.45,-11.05 -7.03333,-7.33333 -12.31666,-17.46666 -15.85,-30.4 -3.26667,-11.86667 -4.483334,-23.7 -3.65,-35.5 0.8,-11.93333 3.499994,-20.71667 8.1,-26.35 l 52.05,-64.65 16.55,-6 c 13.2,-4.63334 25.36667,-8.55 36.5,-11.75 z"
           id="path6242"
           inkscape:connector-curvature="0"
           style="fill:#3396cd;stroke-linecap:round;stroke-linejoin:round" />
        <path
           d="m 240.95,164.45 c -6.06667,-12.9 -18.26667,-20.31667 -36.6,-22.25 3.23333,-4.83333 8.03333,-10.1 14.4,-15.8 5.8,-5.2 11.95,-9.93334 18.45,-14.2 6.43333,-4.23333 11.76666,-7.05 16,-8.45 4.56666,-1.46667 6.93333,-0.93333 7.1,1.6 1.36666,20.83333 1.13332,39.96667 -0.7,57.4 -3.3,31.8 -11.45002,58.13333 -24.45,79 -9.56667,15.30002 -21.28333,27.0167 -35.15,35.15 -14.03334,8.2 -31.8,13.6 -53.3,16.2 2.93333,-0.96667 6.1,-3.3 9.5,-7 5.23333,-5.66665 8.76667,-9.28332 10.6,-10.85 16.7,-3.36667 32.08333,-11.88333 46.15,-25.55 13.06666,-12.73333 22.33333,-27.11666 27.8,-43.15 5.59999,-16.5 5.66666,-30.53334 0.2,-42.1 z"
           id="path6244"
           inkscape:connector-curvature="0"
           style="fill:#2880ae;stroke-linecap:round;stroke-linejoin:round" />
        <path
           d="m 144.55,273.35 1.2,-7.35 12.25,-1.2 c 17.7,4.56667 33.26666,4.68334 46.7,0.35 4.4,-1.4 8.78334,-3.38334 13.15,-5.95 l 8.05,-4.95 c -2.7,3.43332 -6.08333,6.9833 -10.15,10.65 -6.56667,5.9 -13.81667,11.01666 -21.75,15.35 -8.5,4.66666 -17.56667,8.15 -27.2,10.45 -7.63333,1.83336 -16.61667,3.11668 -26.95,3.85 -7.73333,0.53334 -10.95,-0.33333 -9.65,-2.6 0.43333,-0.76668 1.48333,-1.8167 3.15,-3.15 l 4,-3.1 c 3.30001,-2.8 5.7,-6.91667 7.2,-12.35 z"
           id="path6246"
           inkscape:connector-curvature="0"
           style="fill:#fff1ac;stroke-linecap:round;stroke-linejoin:round" />
        <path
           d="m 166.8,290.7 c -7.63333,1.83336 -16.61667,3.11668 -26.95,3.85 -7.73333,0.53334 -10.95,-0.33333 -9.65,-2.6 0.43333,-0.76668 1.48333,-1.8167 3.15,-3.15 l 4,-3.1 c 2.53333,-2.13332 4.53333,-5.04998 6,-8.75 17.13334,0.5 31.56667,-2.39998 43.3,-8.7 9.26667,-0.36667 17.85,-2.43335 25.75,-6.2 4.19999,-2 8.69999,-4.60002 13.5,-7.8 -2.7,3.43332 -6.08333,6.9833 -10.15,10.65 -6.56667,5.9 -13.81667,11.01666 -21.75,15.35 -8.5,4.66666 -17.56667,8.15 -27.2,10.45 z"
           id="path6248"
           inkscape:connector-curvature="0"
           style="fill:#dcd096;stroke-linecap:round;stroke-linejoin:round" />
        <path
           d="M 1.75,200.9 C 0.58333325,195.03334 0.79999995,190.71667 2.4,187.95 3,186.91666 3.7166667,186.26666 4.55,186 c 0.8,-0.26666 1.4833333,-0.15 2.05,0.35 6.333333,5.5 11.933333,9.88334 16.8,13.15 4.3,2.90001 8.566667,5.28334 12.8,7.15 l 38.2,12.75 -5.95,61.5 C 42.88333,270.06665 24.43333,254.64998 13.1,234.65 9.333333,228.01666 6.4333324,220.98334 4.4,213.55 L 1.75,200.9 z"
           id="path6250"
           inkscape:connector-curvature="0"
           style="fill:#3396cd;stroke-linecap:round;stroke-linejoin:round" />
        <path
           d="m 27,253.3 c 5.633335,3.96666 11.916668,7.45 18.85,10.45 6.7,2.9 14.53333,5.56665 23.5,8 l -0.9,9.15 C 51.616665,273.73334 37.8,264.53333 27,253.3 z"
           id="path6252"
           inkscape:connector-curvature="0"
           style="fill:#2880ae;stroke-linecap:round;stroke-linejoin:round" />
        <path
           d="m 36.2,207.55 c 3.533334,-2.96666 6.316666,-7.61665 8.35,-13.95 l 2.7,-11.7 c 0.433334,-1.9 2,-2.38334 4.7,-1.45 2.633336,0.9 4.300004,2.28334 5,4.15 l 4.3,11.3 c 2.333332,6.13334 3.85,10.01667 4.55,11.65 l -5.3,10.6 c -6.333332,-0.83333 -12.13333,-2.45 -17.4,-4.85 -4.966665,-2.3 -7.266664,-4.21667 -6.9,-5.75 z"
           id="path6254"
           inkscape:connector-curvature="0"
           style="fill:#3396cd;stroke-linecap:round;stroke-linejoin:round" />
        <path
           d="m 55.6,183.55 c 0.6,-0.0667 1.05,0.28334 1.35,1.05 l 4.3,11.3 c 2.333332,6.13334 3.85,10.01667 4.55,11.65 l -4.15,8.35 c -2.4,-4.66668 -4.3,-10.2 -5.7,-16.6 -1.2,-5.33333 -1.733333,-9.5 -1.6,-12.5 0.06667,-2.06666 0.483336,-3.14999 1.25,-3.25 z"
           id="path6256"
           inkscape:connector-curvature="0"
           style="fill:#2880ae;stroke-linecap:round;stroke-linejoin:round" />
        <path
           d="m 268.85,179.65 9.1,0.7 0.15,11.1 c 0.36667,7.9 1.15,13.15 2.35,15.75 0.7,1.5 0.14998,2.66667 -1.65,3.5 -1.60002,0.76667 -3.83336,1.15 -6.7,1.15 -2.86666,0 -5.45,-0.4 -7.75,-1.2 -2.6,-0.86666 -4.21667,-2.01665 -4.85,-3.45 -1.63333,-3.6 -2.2,-8.73333 -1.7,-15.4 0.43334,-5.76667 1.13335,-9.30002 2.1,-10.6 1,-1.33333 3.98333,-1.85 8.95,-1.55 z"
           id="path6258"
           inkscape:connector-curvature="0"
           style="fill:#3396cd;stroke-linecap:round;stroke-linejoin:round" />
        <path
           d="m 268.85,179.65 9.1,0.7 0.05,8.4 c -4.26666,-3.56667 -7.66666,-1.9 -10.2,5 -1.96666,5.40001 -2.8833,11.11667 -2.75,17.15 -3,-0.9 -4.85002,-2.13334 -5.55,-3.7 -1.63333,-3.6 -2.2,-8.73333 -1.7,-15.4 0.43334,-5.76667 1.13335,-9.30002 2.1,-10.6 1,-1.33333 3.98333,-1.85 8.95,-1.55 z"
           id="path6260"
           inkscape:connector-curvature="0"
           style="fill:#2880ae;stroke-linecap:round;stroke-linejoin:round" />
        <path
           d="m 260.2,143.95 c 11.53334,0.93333 18.7,6.41667 21.5,16.45 0.96666,3.46667 1.26664,7.08334 0.9,10.85 -0.26666,3.2 -0.81664,5.28333 -1.65,6.25 -1.13332,1.3 -4.14998,2.13333 -9.05,2.5 l -9.05,0.15 -3.8,-12.4 1.15,-23.8 z"
           id="path6262"
           inkscape:connector-curvature="0"
           style="fill:#3396cd;stroke-linecap:round;stroke-linejoin:round" />
        <path
           d="m 260.2,143.95 c 7.53334,0.6 13.25,3.25 17.15,7.95 0.83335,2.6 -0.5,6.95 -4,13.05 -2.9,5.03334 -6.4333,9.98333 -10.6,14.85 l -3.7,-12.05 1.15,-23.8 z"
           id="path6264"
           inkscape:connector-curvature="0"
           style="fill:#2880ae;stroke-linecap:round;stroke-linejoin:round" />
        <path
           d="m 285.35,225.65 c -0.63333,5.53333 -1.81667,10.6 -3.55,15.2 -4.66667,12.36666 -11.86665,17.9 -21.6,16.6 -9.36667,-1.23333 -15.43334,-4.91666 -18.2,-11.05 -1.06667,-2.36666 -1.81667,-5.48333 -2.25,-9.35 l -0.95,-10.75 21.85,-22.75 c 2.96667,-1.5 7.41668,-1.45 13.35,0.15 6.80002,1.8 10.6,5.15 11.4,10.05 0.5,3.09999 0.48333,7.06665 -0.05,11.9 z"
           id="path6266"
           inkscape:connector-curvature="0"
           style="fill:#3396cd;stroke-linecap:round;stroke-linejoin:round" />
        <path
           d="m 265.55,202.7 7.15,0.7 c -6.93334,2.8 -10.51668,10.31666 -10.75,22.55 -0.23333,11.43333 2.21666,21.55 7.35,30.35 -2.83336,1.23333 -5.86668,1.61666 -9.1,1.15 -9.36667,-1.23333 -15.43334,-4.91666 -18.2,-11.05 -1.06667,-2.36666 -1.81667,-5.48333 -2.25,-9.35 l -0.95,-10.75 21.85,-22.75 c 1.06667,-0.53334 2.7,-0.81668 4.9,-0.85 z"
           id="path6268"
           inkscape:connector-curvature="0"
           style="fill:#2880ae;stroke-linecap:round;stroke-linejoin:round" />
        <path
           d="m 268.85,244.45 c 0.4,2.13333 -0.0167,4.26666 -1.25,6.4 -1.2,2 -2.48333,3.03333 -3.85,3.1 -1.73334,0.0667 -3.36667,-1.2 -4.9,-3.8 -1.46667,-2.63334 -1.75,-4.61667 -0.85,-5.95 1,-1.5 2.91666,-2.33333 5.75,-2.5 3,-0.2 4.7,0.71667 5.1,2.75 z"
           id="path6270"
           inkscape:connector-curvature="0"
           style="fill:#eeeeef;stroke-linecap:round;stroke-linejoin:round" />
        <path
           d="m 258.85,250.15 c -1.46667,-2.63334 -1.75,-4.61667 -0.85,-5.95 0.43332,-0.66667 1.25,-1.25 2.45,-1.75 1.16667,-0.46666 2.36665,-0.71666 3.6,-0.75 -2.56666,2.03334 -2.41667,6.05 0.45,12.05 l -0.75,0.2 c -1.73334,0.0667 -3.36667,-1.2 -4.9,-3.8 z"
           id="path6272"
           inkscape:connector-curvature="0"
           style="fill:#c8c9ca;stroke-linecap:round;stroke-linejoin:round" />
        <path
           d="m 245.2,249.5 c 1.3,0 3.08334,0.68333 5.35,2.05 2.2,1.33333 3.65,2.56667 4.35,3.7 0.53333,0.93332 -1.06666,1.94998 -4.8,3.05 l -5.8,1.4 -0.2,-5.1 c 0,-3.4 0.36667,-5.1 1.1,-5.1 z"
           id="path6274"
           inkscape:connector-curvature="0"
           style="fill:#c8c9ca;stroke-linecap:round;stroke-linejoin:round" />
        <path
           d="m 261.5,255.95 c 0.80002,-1.03334 2.6667,-2.03334 5.6,-3 2.8,-0.9 4.84998,-1.25 6.15,-1.05 1.03333,0.16667 0.18332,1.78333 -2.55,4.85 l -4.35,4.5 -2.85,-2.1 c -1.80002,-1.53333 -2.46667,-2.6 -2,-3.2 z"
           id="path6276"
           inkscape:connector-curvature="0"
           style="fill:#eeeeef;stroke-linecap:round;stroke-linejoin:round" />
        <path
           d="m 261.5,255.95 c 0.63333,-0.76667 1.91666,-1.54999 3.85,-2.35 -0.6,1.13334 -0.68334,2.35 -0.25,3.65 0.3,0.86667 0.95,1.96667 1.95,3.3 l -0.7,0.7 -2.85,-2.1 c -1.80002,-1.53333 -2.46667,-2.6 -2,-3.2 z"
           id="path6278"
           inkscape:connector-curvature="0"
           style="fill:#c8c9ca;stroke-linecap:round;stroke-linejoin:round" />
        <path
           d="m 153.4,26.4 c 3.9,-7.633334 9.63334,-14.9 17.2,-21.8 2.80001,-2.5666667 5.08333,-3.8166667 6.85,-3.75 1.03334,0.0333333 2.25001,0.75 3.65,2.15 0.9,0.9 1.1,2.3 0.6,4.2 l -2.15,5.8 c 6.73333,2.833334 12.85,7.183334 18.35,13.05 5.4,5.733335 8.9,11.51667 10.5,17.35 l -48,29.1 -9.2,-1.8 c -5.8,-15.2 -5.06667,-29.966666 2.2,-44.3 z"
           id="path6280"
           inkscape:connector-curvature="0"
           style="fill:#3396cd;stroke-linecap:round;stroke-linejoin:round" />
        <path
           d="m 192.6,21.1 c 3.9,3.233334 7.23333,6.8 10,10.7 2.83333,3.966666 4.76667,7.833335 5.8,11.6 l -48,29.1 -2.85,-0.6 c 0.8,-14.76667 3.86667,-27.483336 9.2,-38.15 6.8,-13.566668 15.41667,-17.783335 25.85,-12.65 z"
           id="path6282"
           inkscape:connector-curvature="0"
           style="fill:#2880ae;stroke-linecap:round;stroke-linejoin:round" />
        <path
           d="m 238.35,38 c 0.30001,6.600002 0.63334,11.9 1,15.9 l 2.9,4.55 c 2.26666,3.8 4.28333,7.58333 6.05,11.35 5.63333,12.1 7.63333,21.85 6,29.25 -0.63333,2.8 -2.55,5.65 -5.75,8.55 -4.36667,3.53333 -7.85,6.51667 -10.45,8.95 -3.73333,3.43333 -8.68333,5.65 -14.85,6.65 l -17.8,0.75 -18.55,1.1 c -6.76667,1.26667 -12.46667,3.85 -17.1,7.75 l -4.1,2.95 c -4.73333,-0.43333 -8.73333,-3.13333 -12,-8.1 -3.1,-4.66666 -5.06665,-10.54999 -5.9,-17.65 -0.86667,-7.23333 -0.41667,-14.38333 1.35,-21.45 1.96667,-7.7 5.26667,-14.18334 9.9,-19.45 5.73333,-6.5 14.28333,-12.1 25.65,-16.8 3,-1.233334 6.98333,-2.716668 11.95,-4.45 L 204.2,45 c 2.43333,-1.333332 6.66667,-4.616665 12.7,-9.85 l 11.95,-10.6 c 2.2,-1.966666 4.21667,-2.583333 6.05,-1.85 1.63334,0.666667 2.58334,2.15 2.85,4.45 l 0.6,10.85 z"
           id="path6284"
           inkscape:connector-curvature="0"
           style="fill:#3396cd;stroke-linecap:round;stroke-linejoin:round" />
        <path
           d="m 232,51.95 c 0.8,-2.366664 1.6,-7.116664 2.4,-14.25 0.8,-7.266668 1.03333,-12.233335 0.7,-14.9 1.5,0.766668 2.38334,2.216668 2.65,4.35 l 0.6,10.85 c 0.30001,6.600002 0.63334,11.9 1,15.9 l 1.5,2 -1.95,4 -1.85,4.05 -4,-7.2 c -1.03334,-2.166668 -1.38334,-3.766666 -1.05,-4.8 z"
           id="path6286"
           inkscape:connector-curvature="0"
           style="fill:#2880ae;stroke-linecap:round;stroke-linejoin:round" />
        <path
           d="m 150.75,71.75 c 4.03334,0.13333 7.85,0.13333 11.45,0 2.1,-0.06667 2.85,1.46667 2.25,4.6 -0.5,2.73333 -1.85001,5.966666 -4.05,9.7 -2.16668,3.73333 -4.30001,6.48333 -6.4,8.25 -2.40001,1.96667 -4.03334,1.96667 -4.9,0 -3.63334,-8.03333 -6.61668,-13.8 -8.95,-17.3 -1,-1.5 -1.15,-2.816666 -0.45,-3.95 0.63333,-1.06667 1.66667,-1.58334 3.1,-1.55 l 7.95,0.25 z"
           id="path6288"
           inkscape:connector-curvature="0"
           style="fill:#3396cd;stroke-linecap:round;stroke-linejoin:round" />
        <path
           d="m 152.7,74.35 c 4.26667,0.2 7.43335,0.26667 9.5,0.2 2.6,-0.09999 2.68333,3.43334 0.25,10.6 -0.93334,2.7 -1.95,4.96666 -3.05,6.8 -1.13334,1.93333 -1.93334,2.58333 -2.4,1.95 -2.53334,-3.53333 -4.86667,-7.03333 -7,-10.5 -3.53334,-5.73333 -4.76668,-8.73333 -3.7,-9 0.93334,-0.23333 3.06667,-0.25 6.4,-0.05 z"
           id="path6290"
           inkscape:connector-curvature="0"
           style="fill:#2880ae;stroke-linecap:round;stroke-linejoin:round" />
        <path
           d="m 206.75,87.4 c 4.8,-4.66666 9.71667,-7.78333 14.75,-9.35 l 3.95,4.65 c 2.8,4.3 4.63333,9.4 5.5,15.3 -4.8,3.23333 -10.48334,5.45 -17.05,6.65 -4.9,0.93334 -10.76667,1.33334 -17.6,1.2 1.2,-6.7 4.68334,-12.85 10.45,-18.45 z"
           id="path6292"
           inkscape:connector-curvature="0"
           style="fill:#ffffff;stroke-linecap:round;stroke-linejoin:round" />
        <path
           d="m 222.9,79.4 c 1.13334,1.23333 2.18334,2.666666 3.15,4.3 -4,-0.3 -9.25,1.750005 -15.75,6.15 -7.16667,4.86667 -11.61667,10.2 -13.35,16 l -0.65,0 c 1.2,-6.7 4.68334,-12.85 10.45,-18.45 4.8,-4.66666 9.71667,-7.78333 14.75,-9.35 l 1.4,1.35 z"
           id="path6294"
           inkscape:connector-curvature="0"
           style="fill:#dbdcdc;stroke-linecap:round;stroke-linejoin:round" />
        <path
           d="m 200.45,95.25 c 1.96666,-3.36667 3.95,-5.86667 5.95,-7.5 3.9,0.700005 6.43334,3.200005 7.6,7.5 1.13333,4.13333 0.48334,7.31667 -1.95,9.55 -2.86667,0.66667 -5.51666,1.05 -7.95,1.15 l -7.8,-0.1 c 0.6,-3.4 1.98333,-6.933336 4.15,-10.6 z"
           id="path6296"
           inkscape:connector-curvature="0"
           style="fill:#0d131a;stroke-linecap:round;stroke-linejoin:round" />
        <path
           d="m 239.6,116.2 c 0.2,3 -0.58334,6.28333 -2.35,9.85 -3.56667,7.2 -10.28333,12.28333 -20.15,15.25 -9.53333,2.9 -20.31667,2.41666 -32.35,-1.45 -3.76666,-1.23333 -7.43333,-2.71667 -11,-4.45 l -4.2,-2.25 c 3.6,-4.96667 12.7,-8.11667 27.3,-9.45 1.86666,-0.16667 5.18333,-0.23333 9.95,-0.2 4.96666,0.0333 8.74999,-0.05 11.35,-0.25 9.26667,-0.73333 15.98335,-3.38333 20.15,-7.95 l 1.3,0.9 z"
           id="path6298"
           inkscape:connector-curvature="0"
           style="fill:#fff1ac;stroke-linecap:round;stroke-linejoin:round" />
        <path
           d="m 238.3,115.3 1.3,0.9 c 0.2,3 -0.58334,6.28333 -2.35,9.85 -3.56667,7.2 -10.28333,12.28333 -20.15,15.25 -6.5,1.96666 -13.61666,2.35 -21.35,1.15 3.33333,0.33333 6.65,0.0667 9.95,-0.8 3.93333,-1.03333 7.15,-2.78333 9.65,-5.25 2.76667,-2.73333 3.45,-5.03333 2.05,-6.9 -1.33333,-1.76667 -4.11666,-2.65 -8.35,-2.65 -7.16667,0 -14.78334,-0.55001 -22.85,-1.65 l 10.65,-1.5 c 1.86666,-0.16667 5.18333,-0.23333 9.95,-0.2 4.96666,0.0333 8.74999,-0.05 11.35,-0.25 9.26667,-0.73333 15.98335,-3.38333 20.15,-7.95 z"
           id="path6300"
           inkscape:connector-curvature="0"
           style="fill:#dcd096;stroke-linecap:round;stroke-linejoin:round" />
        <path
           d="m 306.55,48.45 c -0.3,6.233334 -0.86665,11.783334 -1.7,16.65 -2.83334,16.23333 -8.93334,27.199995 -18.3,32.9 -8.43333,5.1 -14.98332,8.06667 -19.65,8.9 -3.66666,0.66667 -8.4833,0.14999 -14.45,-1.55 -2.63333,-0.73333 -5.35,-3.03333 -8.15,-6.9 -2.56666,-3.56667 -4.8,-7.866664 -6.7,-12.9 -1.9,-5.099995 -3.06667,-9.91666 -3.5,-14.45 -0.46667,-4.933336 0.05,-8.733335 1.55,-11.4 l 4.9,-9.55 c 2.2,-4.299998 4.15,-7.78333 5.85,-10.45 5.16667,-8.100002 10.85,-13.150003 17.05,-15.15 6.13334,-2 15.86668,-3.116668 29.2,-3.35 6.86666,-0.133332 14.1,-0.06667 21.7,0.2 2.83335,0 4.68336,0.633333 5.55,1.9 1.03335,1.566667 0.23336,3.9 -2.4,7 -1.96667,2.33333 -4.30002,4.3 -7,5.9 -2,1.16667 -3.16666,2.350003 -3.5,3.55 -0.0667,0.2 -0.21667,3.100002 -0.45,8.7 z"
           id="path6302"
           inkscape:connector-curvature="0"
           style="fill:#3396cd;stroke-linecap:round;stroke-linejoin:round" />
        <path
           d="m 276.05,32.9 c 7.26668,0 12.3167,2.533334 15.15,7.6 3.16667,5.600002 3.36665,13.916668 0.6,24.95 -2.83336,11.43333 -7.78334,20.216664 -14.85,26.35 -6.96666,6.06667 -14.43334,8.3 -22.4,6.7 0.43334,-8.299995 -1.36667,-15.43333 -5.4,-21.4 -1.23333,-1.83334 -2.63332,-3.450006 -4.2,-4.85 L 243,70.7 c 0.26666,-2.16667 1.5,-5.31667 3.7,-9.45 2.26667,-4.3 4.96667,-8.5 8.1,-12.6 8.03334,-10.5 15.1167,-15.75 21.25,-15.75 z"
           id="path6304"
           inkscape:connector-curvature="0"
           style="fill:#d8ba9d;stroke-linecap:round;stroke-linejoin:round" />
        <path
           d="m 276.05,32.9 c 4.06667,0 7.46666,0.833334 10.2,2.5 2.86667,1.733335 4.91666,4.333334 6.15,7.8 -9.5667,5.4 -17.11667,13.449998 -22.65,24.15 -5.5,10.63334 -7.51666,21.03334 -6.05,31.2 -3.06667,0.56667 -6.1167,0.55 -9.15,-0.05 0.43334,-8.299995 -1.36667,-15.43333 -5.4,-21.4 -1.23333,-1.83334 -2.63332,-3.450006 -4.2,-4.85 L 243,70.7 c 0.26666,-2.16667 1.5,-5.31667 3.7,-9.45 2.26667,-4.3 4.96667,-8.5 8.1,-12.6 8.03334,-10.5 15.1167,-15.75 21.25,-15.75 z"
           id="path6306"
           inkscape:connector-curvature="0"
           style="fill:#b19981;stroke-linecap:round;stroke-linejoin:round" />
        <path
           d="m 268.65,46.75 c 3.2,1.333332 5.66668,3.716667 7.4,7.15 2.89998,5.833334 3.9333,12.61666 3.1,20.35 -1.23334,11.200005 -7.16666,19.28334 -17.8,24.25 l -6.9,0.45 c 0.63333,-2.866664 0.61667,-6.23333 -0.05,-10.1 -1.33333,-7.7 -5.23333,-14 -11.7,-18.9 2.8,-5.93334 5.88333,-11.51667 9.25,-16.75 1.66667,-2.633334 3.06666,-4.666667 4.2,-6.1 4.66665,-1.733335 8.8333,-1.85 12.5,-0.35 z"
           id="path6308"
           inkscape:connector-curvature="0"
           style="fill:#746544;stroke-linecap:round;stroke-linejoin:round" />
        <path
           d="m 251.95,53.2 c 1.66667,-2.633334 3.06666,-4.666667 4.2,-6.1 4.66665,-1.733335 8.8333,-1.85 12.5,-0.35 3.2,1.333332 5.66668,3.716667 7.4,7.15 l 0.8,1.85 c -7.36666,10.36667 -12.08334,20.6 -14.15,30.7 -1.03334,5 -1.48336,9.01667 -1.35,12.05 l -6.9,0.45 c 0.63333,-2.866664 0.61667,-6.23333 -0.05,-10.1 -1.33333,-7.7 -5.23333,-14 -11.7,-18.9 2.8,-5.93334 5.88333,-11.51667 9.25,-16.75 z"
           id="path6310"
           inkscape:connector-curvature="0"
           style="fill:#5a4e33;stroke-linecap:round;stroke-linejoin:round" />
        <path
           d="m 221.5,203.95 c 0,-4.53334 1.58333,-8.86667 4.75,-13 2.33333,-3.03334 6,-6.41667 11,-10.15 l 12.3,-9.1 c 4.3,-3.46666 7.2,-6.7 8.7,-9.7 l 2.85,10.65 c 1.73334,8.56666 2.16666,16.55 1.3,23.95 -1.16666,10 -5.28333,17.85 -12.35,23.55 -2.56666,2.06666 -5.28334,3.64999 -8.15,4.75 -2.4,0.9 -4.3,1.26667 -5.7,1.1 -3.33333,-0.36667 -6.38333,-2.06667 -9.15,-5.1 -3.7,-4.1 -5.55,-9.74999 -5.55,-16.95 z"
           id="path6312"
           inkscape:connector-curvature="0"
           style="fill:#fff1ac;stroke-linecap:round;stroke-linejoin:round" />
        <path
           d="m 254.75,167 c 1.6,-1.86667 2.76666,-3.53334 3.5,-5 l 2.85,10.65 c 1.73334,8.56666 2.16666,16.55 1.3,23.95 -1.16666,10 -5.28333,17.85 -12.35,23.55 -2.56666,2.06666 -5.28334,3.64999 -8.15,4.75 -2.4,0.9 -4.3,1.26667 -5.7,1.1 -2.33333,-0.26666 -4.63333,-1.28333 -6.9,-3.05 5.3,-0.36667 9.60001,-2.73334 12.9,-7.1 2.83333,-3.73333 4.75,-8.6 5.75,-14.6 0.86667,-5.23334 0.93333,-10.35 0.2,-15.35 -0.73333,-4.83333 -1.96667,-7.98333 -3.7,-9.45 4.23333,-3.26667 7.66667,-6.41666 10.3,-9.45 z"
           id="path6314"
           inkscape:connector-curvature="0"
           style="fill:#dcd096;stroke-linecap:round;stroke-linejoin:round" />
        <path
           d="m 197.65,195.8 c 1.86666,2.26667 3,4.98333 3.4,8.15 0.46666,3.7 -0.0667,7.31666 -1.6,10.85 -1.53334,3.6 -3.88335,6.51667 -7.05,8.75 -7.53333,5.36667 -16.9,5.48334 -28.1,0.35 -1.76667,-1.36666 -3.35,-3.55 -4.75,-6.55 -2.83333,-6 -3.38333,-13.01666 -1.65,-21.05 1.76667,-8.03334 4.58334,-15.13334 8.45,-21.3 1.93334,-3.09999 3.68334,-5.38333 5.25,-6.85 4.56667,7.93333 10.96667,15.1 19.2,21.5 3.4,2.66667 5.68332,4.71667 6.85,6.15 z"
           id="path6316"
           inkscape:connector-curvature="0"
           style="fill:#fff1ac;stroke-linecap:round;stroke-linejoin:round" />
        <path
           d="m 164.3,223.9 c -1.46666,-1.16668 -2.86665,-2.98334 -4.2,-5.45 -2.66667,-4.96666 -3.65,-10.76667 -2.95,-17.4 4.86666,6.6 10.73333,11.04999 17.6,13.35 9.16667,3.06666 17.95001,0.98333 26.35,-6.25 -0.63334,7.46667 -4.16668,13.00001 -10.6,16.6 -7.33333,4.06667 -16.06667,3.78333 -26.2,-0.85 z"
           id="path6318"
           inkscape:connector-curvature="0"
           style="fill:#dcd096;stroke-linecap:round;stroke-linejoin:round" />
        <path
           d="m 181.15,244.6 c -0.36666,1.06667 -2.94999,2.43334 -7.75,4.1 l 4.35,-10.45 c 0.96666,0.96666 1.79999,2.03333 2.5,3.2 0.83333,1.4 1.13333,2.45001 0.9,3.15 z"
           id="path6320"
           inkscape:connector-curvature="0"
           style="fill:#c8c9ca;stroke-linecap:round;stroke-linejoin:round" />
        <path
           d="m 173.25,249.1 2.15,10.9 -4.25,0.9 -8.15,0.5 10.25,-12.3 z"
           id="path6322"
           inkscape:connector-curvature="0"
           style="fill:#c8c9ca;stroke-linecap:round;stroke-linejoin:round" />
        <path
           d="m 158.9,263.2 -2.05,4.7 c -4.33332,-0.86667 -7.73333,-1.83335 -10.2,-2.9 l 12.25,-1.8 z"
           id="path6324"
           inkscape:connector-curvature="0"
           style="fill:#c8c9ca;stroke-linecap:round;stroke-linejoin:round" />
        <path
           d="m 140.75,296.05 c 2.13333,3.5 2.63333,6.56667 1.5,9.2 -2.16667,5.06668 -5,9.06668 -8.5,12 -5.06667,4.23334 -11.31667,6 -18.75,5.3 L 89.85,320.75 72.5,319.9 c -6.46667,-0.23334 -9.25,-3.23334 -8.35,-9 0.9,-5.66666 5.08334,-12.63334 12.55,-20.9 l 59.8,-4.7 c 0.13333,2.8 1.55,6.38335 4.25,10.75 z"
           id="path6326"
           inkscape:connector-curvature="0"
           style="fill:#3396cd;stroke-linecap:round;stroke-linejoin:round" />
        <path
           d="m 76.7,290 59.8,-4.7 c 0.13333,2.8 1.55,6.38335 4.25,10.75 2.13333,3.5 2.63333,6.56667 1.5,9.2 -1.03334,2.46667 -2.85,5.21667 -5.45,8.25 -2.9,3.4 -5.8,5.96667 -8.7,7.7 -1,-7.43334 -7.51667,-13.93334 -19.55,-19.5 -9.43333,-4.33333 -20.66667,-7.53334 -33.7,-9.6 L 76.7,290 z"
           id="path6328"
           inkscape:connector-curvature="0"
           style="fill:#2880ae;stroke-linecap:round;stroke-linejoin:round" />
        <path
           d="m 80.7,309.35 c 0.93333,2.0667 1,4.0167 0.2,5.85 -0.6,1.36668 -3.049994,3.3 -7.35,5.8 -3.5,2 -7,3.73334 -10.5,5.2 -0.733334,-2.93334 -1.033334,-6.05 -0.9,-9.35 0.133333,-4.5 1.133333,-8.01666 3,-10.55 1.5,-2.06666 3.36667,-3.18333 5.6,-3.35 2,-0.16664 3.96667,0.38334 5.9,1.65 1.86666,1.26667 3.21666,2.85 4.05,4.75 z"
           id="path6330"
           inkscape:connector-curvature="0"
           style="fill:#eeeeef;stroke-linecap:round;stroke-linejoin:round" />
        <path
           d="m 108.95,313.9 c 4.33333,-5.03333 8.8,-6.5 13.4,-4.4 1.7,0.76666 3.15,1.91666 4.35,3.45 1.06667,1.4 1.6,2.6 1.6,3.6 0,1.86666 -1.13333,4.55 -3.4,8.05 -2.3,3.5667 -4.61667,6.11667 -6.95,7.65 -3.03334,-2.53333 -5.56667,-5.96664 -7.6,-10.3 -1.96667,-4.16664 -2.43334,-6.85 -1.4,-8.05 z"
           id="path6332"
           inkscape:connector-curvature="0"
           style="fill:#eeeeef;stroke-linecap:round;stroke-linejoin:round" />
        <path
           d="m 81.15,310.65 c 0.433336,1.6 0.35,3.11666 -0.25,4.55 -0.6,1.3 -2.86667,3.13334 -6.8,5.5 -3.23333,1.86668 -6.61666,3.58336 -10.15,5.15 5.76667,-4.7 10.71667,-11.15002 14.85,-19.35 1.16667,1.26666 1.95,2.65 2.35,4.15 z"
           id="path6334"
           inkscape:connector-curvature="0"
           style="fill:#c8c9ca;stroke-linecap:round;stroke-linejoin:round" />
        <path
           d="m 126.5,312.75 c 1.20001,1.46667 1.8,2.73334 1.8,3.8 0,1.66664 -0.93333,4.0333 -2.8,7.1 -1.9,3.1 -3.93333,5.6 -6.1,7.5 1.16667,-2.96665 1.89999,-6.51664 2.2,-10.65 0.2,-2.36667 0.28334,-6.1 0.25,-11.2 1.8,0.7 3.35001,1.85 4.65,3.45 z"
           id="path6336"
           inkscape:connector-curvature="0"
           style="fill:#c8c9ca;stroke-linecap:round;stroke-linejoin:round" />
        <path
           d="m 104.75,172.45 39.6,87.65 c 0.96667,9.33335 -0.6,16.61667 -4.7,21.85 -5.46667,6.93333 -15.96667,11.71666 -31.5,14.35 -14.6,2.5 -26.88333,-1.55 -36.85,-12.15 -5.66667,-6.0667 -10.350003,-14.08335 -14.05,-24.05 -1.8,-4.9 -2.583332,-8.9 -2.35,-12 0.233335,-2.93333 1.55,-6.8 3.95,-11.6 -4.200002,-12.83333 1.349997,-26.78333 16.65,-41.85 7.53333,-7.4 17.28333,-14.8 29.25,-22.2 z"
           id="path6338"
           inkscape:connector-curvature="0"
           style="fill:#3396cd;stroke-linecap:round;stroke-linejoin:round" />
        <path
           d="m 106.35,200.1 c -0.4,-10.1 -2.16667,-18.55 -5.3,-25.35 l 4.3,-2.55 c 7.03333,1.53334 15.65,16.63334 25.85,45.3 5.1,14.36667 9.48333,28.56667 13.15,42.6 0.9,8.6 -0.33334,15.4 -3.7,20.4 -4.36666,6.6 -12.84999,11.4 -25.45,14.4 0.66666,-2.03333 0.16666,-4.9 -1.5,-8.6 -1.56667,-3.5 -3.91667,-7.16667 -7.05,-11 -7.3,-8.93333 -14.45,-14.26667 -21.45,-16 3.76667,0.2 7.4,-2.75 10.9,-8.85 3.3,-5.76667 5.91667,-13.23333 7.85,-22.4 1.93333,-9.43333 2.73333,-18.75 2.4,-27.95 z"
           id="path6340"
           inkscape:connector-curvature="0"
           style="fill:#2880ae;stroke-linecap:round;stroke-linejoin:round" />
        <path
           d="m 112.35,180.9 50.85,-1.15 c -2.26667,2.90001 -4.03333,7.68335 -5.3,14.35 -1.46667,7.76667 -1.24999,14.38334 0.65,19.85 1,2.86667 -0.85,5.53334 -5.55,8 -4.33333,2.26667 -9.84999,3.80002 -16.55,4.6 -6.93334,0.86667 -12.88333,0.65 -17.85,-0.65 -5.66667,-1.5 -8.8,-4.15 -9.4,-7.95 -1.1,-6.76667 -0.9,-14.96666 0.6,-24.6 l 2.55,-12.45 z"
           id="path6342"
           inkscape:connector-curvature="0"
           style="fill:#3396cd;stroke-linecap:round;stroke-linejoin:round" />
        <path
           d="m 146.1,197.4 c -5.86666,-7.1 -17.38333,-10.93333 -34.55,-11.5 l 0.8,-5 50.85,-1.15 c -2.26667,2.90001 -4.03333,7.68335 -5.3,14.35 -1.46667,7.76667 -1.24999,14.38334 0.65,19.85 0.7,2.03334 -0.1,4.00001 -2.4,5.9 -2.1,1.76667 -5.21667,3.28333 -9.35,4.55 5.03334,-11.36666 4.8,-20.36666 -0.7,-27 z"
           id="path6344"
           inkscape:connector-curvature="0"
           style="fill:#2880ae;stroke-linecap:round;stroke-linejoin:round" />
        <path
           d="m 112.35,207.1 c 12.50001,-4.16667 23.68334,-4.71667 33.55,-1.65 7.19999,2.26667 12.46665,5.80002 15.8,10.6 0.93333,1.36667 2.26666,4.05 4,8.05 1.13333,2.7 3.11667,5.26667 5.95,7.7 l 4.3,3.85 c 1,1.13334 1.53334,2.28335 1.6,3.45 0.1,2.03333 -1.86668,6.58333 -5.9,13.65 -3.56667,6.23334 -9.11667,10.11667 -16.65,11.65 l -8.9,0.85 -7,0.1 c -3,0.23334 -7.83334,-3.73333 -14.5,-11.9 -7.1,-9.36667 -11.7,-15.2 -13.8,-17.5 -3.03333,-3.26667 -4.23333,-8.7 -3.6,-16.3 0.63334,-7.43334 2.35,-11.61667 5.15,-12.55 z"
           id="path6346"
           inkscape:connector-curvature="0"
           style="fill:#3396cd;stroke-linecap:round;stroke-linejoin:round" />
        <path
           d="m 163.1,239.4 c -1.53333,-9.06667 -7.41667,-20.41666 -17.65,-34.05 3.9,1.16668 7.36668,2.83335 10.4,5 2.53333,1.80001 4.48333,3.7 5.85,5.7 0.93333,1.36667 2.26666,4.05 4,8.05 1.13333,2.7 3.11667,5.26667 5.95,7.7 l 4.3,3.85 c 1,1.13334 1.53334,2.28335 1.6,3.45 0.1,2.03333 -1.86668,6.58333 -5.9,13.65 -2.46667,4.30002 -5.85,7.46667 -10.15,9.5 -3.26666,1.53333 -7.21666,2.46664 -11.85,2.8 10.86666,-5.9 15.35,-14.45001 13.45,-25.65 z"
           id="path6348"
           inkscape:connector-curvature="0"
           style="fill:#2880ae;stroke-linecap:round;stroke-linejoin:round" />
        <path
           d="m 152.7,139.05 12.15,9.85 c 3.76667,3.06666 5.98333,7.35 6.65,12.85 0.56667,4.53334 0.1,8.28334 -1.4,11.25 -2.5,5 -8.94999,8.2 -19.35,9.6 l -26.85,0.9 c -8.2,0 -13.53334,-0.91667 -16,-2.75 -2.76667,-2.06667 -3.9,-6.4 -3.4,-13 0.46667,-6.06667 5.43333,-12.68333 14.9,-19.85 7.83333,-5.96667 14.75,-9.83333 20.75,-11.6 3.83332,-1.13333 8.01666,-0.21666 12.55,2.75 z"
           id="path6350"
           inkscape:connector-curvature="0"
           style="fill:#3396cd;stroke-linecap:round;stroke-linejoin:round" />
        <path
           d="m 163,147.35 1.85,1.55 c 3.76667,3.06666 5.98333,7.35 6.65,12.85 0.56667,4.53334 0.1,8.28334 -1.4,11.25 -2.5,5 -8.94999,8.2 -19.35,9.6 l -26.85,0.9 14.55,-4.25 c 5.33333,-1.8 9.64999,-3.78334 12.95,-5.95 8.53333,-5.7 12.4,-14.34999 11.6,-25.95 z"
           id="path6352"
           inkscape:connector-curvature="0"
           style="fill:#2880ae;stroke-linecap:round;stroke-linejoin:round" />
        <path
           d="m 201.75,95.25 c 1.2,0 2.21666,0.48333 3.05,1.45 0.83333,0.93333 1.25,2.08333 1.25,3.45 0,1.36666 -0.41667,2.51666 -1.25,3.45 -0.83333,0.93333 -1.84999,1.4 -3.05,1.4 -1.16667,0 -2.18333,-0.46667 -3.05,-1.4 -0.83333,-0.96667 -1.25,-2.11667 -1.25,-3.45 0,-1.333334 0.41667,-2.483336 1.25,-3.45 0.86667,-0.96667 1.88333,-1.45 3.05,-1.45 z"
           id="path6354"
           inkscape:connector-curvature="0"
           style="fill:#ffffff;stroke-linecap:round;stroke-linejoin:round" />
        <path
           d="m 176.85,299.25 c -1.19999,-1.19998 -2,-2.41666 -2.4,-3.65 -0.5,-1.63333 -0.41667,-3.4 0.25,-5.3 l 1.95,-3.9 2.75,0 c -0.66668,1.23333 -1.18334,2.53332 -1.55,3.9 -0.56666,1.96666 -0.64999,3.6 -0.25,4.9 0.6,1.9 2.05,3.41667 4.35,4.55 5.26667,2.63333 11.73335,5.2 19.4,7.7 9.33333,3.06666 15.7,4.28334 19.1,3.65 l 1.15,-0.25 3.4,2.1 -3.65,0.95 c -3.96667,0.7 -11.16667,-0.7333 -21.6,-4.3 -7.7,-2.63333 -14.01666,-5.16665 -18.95,-7.6 -1.53334,-0.76666 -2.85,-1.68332 -3.95,-2.75 z"
           id="path6356"
           inkscape:connector-curvature="0"
           style="fill:#0d131a;stroke-linecap:round;stroke-linejoin:round" />
        <path
           d="m 253.8,302.4 c 0.73333,0.66665 2.51665,1.04998 5.35,1.15 -1.36667,0.76668 -3.58333,1.3167 -6.65,1.65 -2,0.13334 -4.51666,0.61668 -7.55,1.45 l -0.9,-1.05 -1,-1.05 c 3.63333,-1.03334 6.7,-1.66667 9.2,-1.9 l 1.55,-0.25 z"
           id="path6358"
           inkscape:connector-curvature="0"
           style="fill:#0d131a;stroke-linecap:round;stroke-linejoin:round" />
        <path
           d="m 245.95,280.25 1.15,-1.25 5.55,2.3 c 3.9333,1.83333 7.03332,3.71666 9.3,5.65 1.3,1.10002 2.1,2.5 2.4,4.2 -0.6,-0.4 -1.48333,-0.5 -2.65,-0.3 -0.3,-0.76666 -0.75002,-1.4333 -1.35,-2 -2.16665,-1.83334 -5.19999,-3.81667 -9.1,-5.95 -3.23334,-1.76667 -5,-2.65 -5.3,-2.65 z"
           id="path6360"
           inkscape:connector-curvature="0"
           style="fill:#0d131a;stroke-linecap:round;stroke-linejoin:round" />
        <path
           d="m 231.25,284.75 c 7.3,-0.80002 14.03334,-5.05002 20.2,-12.75 4.6,-5.76666 7.3,-10.6 8.1,-14.5 l 2.15,0.5 c -0.93334,4.63333 -3.63335,9.88333 -8.1,15.75 -6.43333,8.43332 -14,13.13333 -22.7,14.1 -6.2,0.7 -11.61667,0.74998 -16.25,0.15 l -10.1,-2.2 -7.95,-1.75 c -3.56666,-0.63334 -6.86666,-0.95 -9.9,-0.95 l 2.1,-1.4 c 6.33333,0 11.78333,0.55 16.35,1.65 4.13334,1 7.51667,1.61667 10.15,1.85 l 15.95,-0.45 z"
           id="path6362"
           inkscape:connector-curvature="0"
           style="fill:#0d131a;stroke-linecap:round;stroke-linejoin:round" />
        <path
           d="m 235.5,250.35 8.55,0.5 0.15,1.05 0.1,0.9 -8.65,-0.4 c -2.26667,-0.4 -4.2,-0.95 -5.8,-1.65 l 0.75,-1.7 c 1.16668,0.5 2.80001,0.93334 4.9,1.3 z"
           id="path6364"
           inkscape:connector-curvature="0"
           style="fill:#0d131a;stroke-linecap:round;stroke-linejoin:round" />
        <path
           d="m 252.15,301.75 c 0.16667,-2.76666 1.36666,-5.48334 3.6,-8.15 2.36667,-2.83334 4.7,-4.11666 7,-3.85 1.86667,0.19998 4.46667,1.86664 7.8,5 3.16664,3 5.54998,5.91666 7.15,8.75 0.53334,0.9 0.71666,1.55 0.55,1.95 -0.13333,0.33336 -0.6,0.53334 -1.4,0.6 -4.3,0.36666 -8.73336,0.3 -13.3,-0.2 -4.43333,-0.5 -7.86667,-1.26666 -10.3,-2.3 -0.8,-0.16667 -1.16667,-0.76667 -1.1,-1.8 z m 17.35,-4.2 c -3.9,-3.86668 -6.46667,-5.86668 -7.7,-6 -1.2,-0.10002 -2.8833,1.36666 -5.05,4.4 -2.09999,2.96666 -2.9,4.76664 -2.4,5.4 0.46667,0.5667 3.83335,1.23334 10.1,2 l 10.1,0.6 c 0.46666,-0.43334 -1.21666,-2.56667 -5.05,-6.4 z"
           id="path6366"
           inkscape:connector-curvature="0"
           style="fill:#0d131a;stroke-linecap:round;stroke-linejoin:round" />
        <path
           d="m 219.9,311.7 c -0.66668,-0.0667 -0.85001,-0.46666 -0.55,-1.2 1.46667,-3.46667 3.78333,-6.56668 6.95,-9.3 3.13333,-2.66664 5.75,-3.86666 7.85,-3.6 2.13334,0.23334 5.06667,2.01667 8.8,5.35 4.1,3.66667 7.16667,7.6 9.2,11.8 0.4,0.83334 0.51667,1.38333 0.35,1.65 -0.23334,0.3 -0.88333,0.43334 -1.95,0.4 l -16.85,-1.4 c -6.4,-0.86667 -11,-2.1 -13.8,-3.7 z m 23.6,-4.65 c -4.3,-4.53334 -7.48334,-7.01667 -9.55,-7.45 -1.43334,-0.16665 -3.86667,1.38334 -7.3,4.65 -3.43334,3.23334 -4.83333,5.31668 -4.2,6.25 0.53334,0.83334 5.05,1.76666 13.55,2.8 l 13.15,0.95 c 0.4,-0.46667 -1.48333,-2.86667 -5.65,-7.2 z"
           id="path6368"
           inkscape:connector-curvature="0"
           style="fill:#0d131a;stroke-linecap:round;stroke-linejoin:round" />
        <path
           d="m 83.95,151.8 c -1.46667,0.46666 -2.800006,1.45 -4,2.95 -1.3,1.59999 -1.95,3.23332 -1.95,4.9 0,4.46667 -0.13333,9.86668 -0.4,16.2 -0.33334,8.4 -0.800005,14.46667 -1.4,18.2 l -2.8,2.05 c 0.533334,-3.36666 0.95,-9.43333 1.25,-18.2 l 0.5,-16.35 c 0.166666,-3.13333 1.11666,-5.81666 2.85,-8.05 1.46667,-1.90001 3.21667,-3.18335 5.25,-3.85 2.1,-0.7 4,-0.2 5.7,1.5 1.366666,1.4 4.05,3.41667 8.05,6.05 4.26667,2.8 7.46667,4.56666 9.6,5.3 l -1.3,2.4 c -3.3,-0.83333 -7.000005,-2.78333 -11.1,-5.85 -3.43333,-2.56666 -5.8,-4.76666 -7.1,-6.6 -0.666666,-0.93334 -1.71667,-1.15 -3.15,-0.65 z"
           id="path6370"
           inkscape:connector-curvature="0"
           style="fill:#0d131a;stroke-linecap:round;stroke-linejoin:round" />
        <path
           d="m 117.95,109.35 c 1.46666,-0.83334 2.91667,-1.28333 4.35,-1.35 1.46667,-0.0667 2.73333,0.25 3.8,0.95 1.86666,1.26667 5.51667,3.26667 10.95,6 5.4,2.7 9.79999,4.73333 13.2,6.1 l 2.55,4.95 c -3.1,-1.23333 -8.15,-3.78333 -15.15,-7.65 -6.16668,-3.4 -10.45001,-5.9 -12.85,-7.5 -0.66666,-0.46667 -1.51666,-0.65 -2.55,-0.55 -1.06667,0.0667 -2.11667,0.41667 -3.15,1.05 -1.13333,0.63334 -2.06667,1.48334 -2.8,2.55 -0.83333,1.23333 -1.2,2.55 -1.1,3.95 l 1.1,15.05 c 0.33334,7.73333 0.13333,13.93333 -0.6,18.6 l -3.3,1.95 c 0.76667,-4.7 1.13334,-11.18334 1.1,-19.45 -0.0333,-5.6 -0.21667,-10.91667 -0.55,-15.95 -0.13333,-1.9 0.33333,-3.66667 1.4,-5.3 0.9,-1.36667 2.1,-2.5 3.6,-3.4 z"
           id="path6372"
           inkscape:connector-curvature="0"
           style="fill:#0d131a;stroke-linecap:round;stroke-linejoin:round" />
        <path
           d="m 151.65,126.2 1.15,1.85 c -2,3.16667 -4.05,5.98334 -6.15,8.45 l -3.45,-0.25 c 4.23333,-4.5 7.05,-7.85 8.45,-10.05 z"
           id="path6374"
           inkscape:connector-curvature="0"
           style="fill:#0d131a;stroke-linecap:round;stroke-linejoin:round" />
        <path
           d="m 66.5,300.6 c 2.566666,-3.73333 5.73333,-7.45 9.5,-11.15 l 1.6,1.4 c -4.166666,4.6 -7.33333,8.95002 -9.5,13.05 -2.33334,0.66665 -4.100004,2.63333 -5.3,5.9 -0.43333,-1.9 0.800002,-4.96666 3.7,-9.2 z"
           id="path6376"
           inkscape:connector-curvature="0"
           style="fill:#0d131a;stroke-linecap:round;stroke-linejoin:round" />
        <path
           d="M 111.55,323.5 75,321.3 c 1.23333,-0.7 2.25,-1.49998 3.05,-2.4 l 31.3,1.9 c 1.13334,0.73333 1.86667,1.63332 2.2,2.7 z"
           id="path6378"
           inkscape:connector-curvature="0"
           style="fill:#0d131a;stroke-linecap:round;stroke-linejoin:round" />
        <path
           d="m 141.45,300.25 c -0.3,-0.96667 -1.05,-2.4167 -2.25,-4.35 -1.1,-1.73334 -1.88332,-3.15 -2.35,-4.25 -0.69999,-1.7 -1.1,-3.59998 -1.2,-5.7 l 1.7,-0.75 c 0.1,1.66667 0.58333,3.26667 1.45,4.8 l 2.55,3.8 c 1.6,2.6 2.56666,4.36666 2.9,5.3 0.76666,2.16666 0.71666,4.25 -0.15,6.25 -1.63334,3.9 -3.78335,7.28333 -6.45,10.15 -3.26667,3.46667 -7.06667,5.88333 -11.4,7.25 0.76667,-1.1 1.3,-2.21667 1.6,-3.35 5.76667,-2.5667 10.18334,-7.45002 13.25,-14.65 0.66668,-1.53333 0.78335,-3.03333 0.35,-4.5 z"
           id="path6380"
           inkscape:connector-curvature="0"
           style="fill:#0d131a;stroke-linecap:round;stroke-linejoin:round" />
        <path
           d="m 80.45,312.55 c 0,-1.43333 -0.48333,-2.85 -1.45,-4.25 -0.933334,-1.33336 -2.1,-2.4 -3.5,-3.2 -1.26667,-0.76666 -2.600006,-1.16665 -4,-1.2 -2.200005,-0.0667 -4.05,0.91665 -5.55,2.95 -1.900005,2.66666 -2.850005,6.41666 -2.85,11.25 0,1.36667 0.1,2.8167 0.3,4.35 0.200002,1.66667 0.41667,2.56666 0.65,2.7 0.3,0.16665 2.883334,-1.25 7.75,-4.25 5,-3.0667 7.71667,-5.1 8.15,-6.1 0.33333,-0.7 0.5,-1.45 0.5,-2.25 z m -20.1,3.25 c 0.566668,-3.86668 1.9,-7.23335 4,-10.1 1.466666,-2 3.3,-3.21666 5.5,-3.65 2.2,-0.43333 4.41667,2e-5 6.65,1.3 2.299995,1.3 4.049995,3.11664 5.25,5.45 1.36667,2.53334 1.566666,4.88335 0.6,7.05 -0.73333,1.7 -3.73333,4.16666 -9,7.4 -4.533334,2.76666 -7.7,4.43332 -9.5,5 l -2.2,0.2 c -0.266665,-0.16664 -0.516665,-0.69997 -0.75,-1.6 -0.866667,-3.83334 -1.05,-7.5167 -0.55,-11.05 z"
           id="path6382"
           inkscape:connector-curvature="0"
           style="fill:#0d131a;stroke-linecap:round;stroke-linejoin:round" />
        <path
           d="m 116,308.05 6,0.25 c 1.96667,0.73333 3.76667,2.03334 5.4,3.9 1.53333,1.8 2.3,3.36665 2.3,4.7 0,1.9333 -1.28334,4.9 -3.85,8.9 -2.36666,3.7 -4.45,6.28334 -6.25,7.75 -0.76667,0.6 -1.43334,0.88332 -2,0.85 -0.46667,-0.0333 -1.01667,-0.33332 -1.65,-0.9 -1.73333,-1.63333 -3.6,-4.26666 -5.6,-7.9 -2.06667,-3.76666 -3.18334,-6.71667 -3.35,-8.85 -0.16666,-1.4 0.0667,-2.46667 0.7,-3.2 2.56667,-2.93333 5.33334,-4.76667 8.3,-5.5 z m 2.1,22.45 c 0.73333,0.0667 2.43333,-1.86664 5.1,-5.8 2.73333,-4 4.1,-6.71666 4.1,-8.15 0,-0.86668 -0.55,-1.95002 -1.65,-3.25 -1.23333,-1.46666 -2.68333,-2.51664 -4.35,-3.15 -3.93333,-1.43333 -7.8,0.0334 -11.6,4.4 -0.16667,0.33333 -0.25,0.73333 -0.25,1.2 l 0,0.55 c 0.13334,1.73333 1.45,4.55 3.95,8.45 2.4,3.80002 3.96667,5.71667 4.7,5.75 z"
           id="path6384"
           inkscape:connector-curvature="0"
           style="fill:#0d131a;stroke-linecap:round;stroke-linejoin:round" />
        <path
           d="m 194.25,281.55 c -16.66667,8.73333 -34.36667,13.21666 -53.1,13.45 l -2.1,-1.75 c 18.4,-0.23334 36.46666,-5.2 54.2,-14.9 17.76666,-9.73333 31.36667,-22.15 40.8,-37.25 3.26667,-5.23333 6.18334,-10.86666 8.75,-16.9 l 1.75,-0.25 1.65,-0.4 c -1.86667,4.66667 -3.56667,8.53334 -5.1,11.6 -1.9,3.83332 -4.00001,7.39999 -6.3,10.7 -10.4,15.03333 -23.91667,26.93333 -40.55,35.7 z"
           id="path6386"
           inkscape:connector-curvature="0"
           style="fill:#0d131a;stroke-linecap:round;stroke-linejoin:round" />
        <path
           d="m 259,106.25 2.5,0.7 c 0.43332,9.96666 0.65,17.98333 0.65,24.05 0.0334,12.59999 -0.51664,24.49998 -1.65,35.7 -0.4,-1.76667 -1.3,-2.98333 -2.7,-3.65 1.43334,-13 2.06667,-26.3 1.9,-39.9 l -0.7,-16.9 z"
           id="path6388"
           inkscape:connector-curvature="0"
           style="fill:#0d131a;stroke-linecap:round;stroke-linejoin:round" />
        <path
           d="m 210.7,263 c -15.66667,6.86667 -33.3,7.73334 -52.9,2.6 l 0.4,-1.6 c 19.2,5 36.43333,4.2 51.7,-2.4 10.86666,-4.7 18.58334,-10.80001 23.15,-18.3 l 1.4,0.85 c -1.83333,3.03333 -4.58333,6.1 -8.25,9.2 -4.53334,3.9 -9.70002,7.11667 -15.5,9.65 z"
           id="path6390"
           inkscape:connector-curvature="0"
           style="fill:#0d131a;stroke-linecap:round;stroke-linejoin:round" />
        <path
           d="m 158.65,289.55 c -7.7,-0.33336 -14.51667,-2.2167 -20.45,-5.65 l 0.8,-1.4 c 5.66667,3.26666 12.95001,4.98334 21.85,5.15 6.73333,0.1 13.38332,-0.61667 19.95,-2.15 l -3.7,2.15 c -6.43333,1.53335 -12.58334,2.16668 -18.45,1.9 z"
           id="path6392"
           inkscape:connector-curvature="0"
           style="fill:#0d131a;stroke-linecap:round;stroke-linejoin:round" />
        <path
           d="m 0.3,190.25 c 0.4,-2.93333 1.05,-4.85 1.95,-5.75 0.5666666,-0.56667 1.2333333,-0.86667 2,-0.9 0.7999997,-0.0667 1.466666,0.15 2,0.65 6.533333,5.66667 12.15,10.21667 16.85,13.65 5.533333,4.03333 10.383334,6.98333 14.55,8.85 l -1.95,1.05 c -4.533334,-2 -9.133334,-4.6 -13.8,-7.8 -4.633334,-3.16667 -10,-7.40001 -16.1,-12.7 -0.3,-0.26667 -0.683333,-0.26667 -1.15,0 -0.8333334,0.5 -1.4,2.01667 -1.7,4.55 -0.3666665,2.96667 -0.2333333,6.56666 0.4,10.8 2.5666665,17.06666 9.4,32.16667 20.5,45.3 11.1,13.16667 25.966666,23.7 44.6,31.6 l 2.7,5.05 C 50.183334,275.83334 33.9,264.73334 22.3,251.3 10.733334,237.93333 3.5333338,221.96666 0.7,203.4 -0.06666666,198.36667 -0.19999999,193.98334 0.3,190.25 z"
           id="path6394"
           inkscape:connector-curvature="0"
           style="fill:#0d131a;stroke-linecap:round;stroke-linejoin:round" />
        <path
           d="m 17.25,233.25 c 0.133333,-3.53334 1.066666,-6.96667 2.8,-10.3 2.033334,-3.86667 4.733335,-7 8.1,-9.4 2.799999,-1.96666 5.9,-3.33333 9.3,-4.1 l 1.5,0.7 c -2.766666,0.23333 -5.816665,1.58334 -9.15,4.05 -3.566666,2.63333 -6.333333,5.8 -8.3,9.5 -1.633333,3.13333 -2.533333,6.61667 -2.7,10.45 -0.2,4.93333 0.933334,9.58334 3.4,13.95 l -1.3,-0.8 c -2.633334,-4.66667 -3.85,-9.35 -3.65,-14.05 z"
           id="path6396"
           inkscape:connector-curvature="0"
           style="fill:#0d131a;stroke-linecap:round;stroke-linejoin:round" />
        <path
           d="m 49.5,178.95 c 1.633335,-0.26667 3.25,0.0667 4.85,1 1.666666,0.96666 2.9,2.38333 3.7,4.25 L 67,204.8 64.75,208 c -1.533333,-3.5 -4.483334,-11.18333 -8.85,-23.05 -0.33333,-0.9 -1.149996,-1.75 -2.45,-2.55 -1.266666,-0.73333 -2.533332,-1.13332 -3.8,-1.2 -0.466666,-0.0333 -0.883334,0.43333 -1.25,1.4 L 48,184 c -0.933334,4.86667 -1.916668,8.75 -2.95,11.65 -1.93333,5.36666 -4.48333,9.46667 -7.65,12.3 0.266668,1.16667 2.583334,2.70001 6.95,4.6 5,2.2 10.433333,3.7 16.3,4.5 l -0.4,1.85 c -3.533333,0.13334 -8.25,-0.96665 -14.15,-3.3 -5.733335,-2.26667 -9.21667,-4.30001 -10.45,-6.1 -0.533335,-0.73334 -0.71667,-1.46667 -0.55,-2.2 l 0.1,-0.35 0.25,-0.25 c 3.066666,-2.56667 5.533334,-6.46666 7.4,-11.7 1.033335,-2.83333 2.000002,-6.63333 2.9,-11.4 0.03333,-0.66667 0.216667,-1.36666 0.55,-2.1 0.666667,-1.46666 1.733333,-2.31667 3.2,-2.55 z"
           id="path6398"
           inkscape:connector-curvature="0"
           style="fill:#0d131a;stroke-linecap:round;stroke-linejoin:round" />
        <path
           d="m 278.65,204.85 c -1.76667,-4.13334 -2.68333,-9.16668 -2.75,-15.1 -0.0333,-3.36667 0.2,-6.63333 0.7,-9.8 l 2.5,-0.9 c -0.36666,2.16667 -0.4,5.81667 -0.1,10.95 0.4,6.83333 1.43332,12.21666 3.1,16.15 l -3.45,-1.3 z"
           id="path6400"
           inkscape:connector-curvature="0"
           style="fill:#0d131a;stroke-linecap:round;stroke-linejoin:round" />
        <path
           d="m 279.55,158 c -3.2,-7.73334 -9.68333,-12 -19.45,-12.8 l 0.2,-2.55 c 6.1,0.5 11.25,2.35 15.45,5.55 3.36667,2.56666 5.78333,5.63333 7.25,9.2 1.63333,4 2.13333,8.35 1.5,13.05 -0.5,3.83333 -1.36667,6.46666 -2.6,7.9 -1.1,1.26667 -3.61667,2.13334 -7.55,2.6 l -11.1,0.35 -0.55,-2.35 12.7,-0.7 c 2.53335,-0.40001 4.06667,-0.91667 4.6,-1.55 0.76666,-0.93334 1.25,-3.16667 1.45,-6.7 0.23332,-4.40001 -0.4,-8.40001 -1.9,-12 z"
           id="path6402"
           inkscape:connector-curvature="0"
           style="fill:#0d131a;stroke-linecap:round;stroke-linejoin:round" />
        <path
           d="m 241.9,242.35 c 0.76667,2.93334 1.95,5.33333 3.55,7.2 -1.13333,0.2 -1.7,0.9 -1.7,2.1 -1.63333,-2.1 -2.81667,-4.18333 -3.55,-6.25 -0.93334,-2.56667 -1.28334,-5.35 -1.05,-8.35 l 0.75,-1.85 0.7,-1.9 c 0.33333,3.86667 0.76667,6.88333 1.3,9.05 z"
           id="path6404"
           inkscape:connector-curvature="0"
           style="fill:#0d131a;stroke-linecap:round;stroke-linejoin:round" />
        <path
           d="m 255.15,255.2 5.2,1.05 1.25,0.05 c 0,1.16664 0.26667,2.0333 0.8,2.6 l -2.35,-0.2 -6.55,-1.25 c 1.2,-1.3 1.75,-2.05 1.65,-2.25 z"
           id="path6406"
           inkscape:connector-curvature="0"
           style="fill:#0d131a;stroke-linecap:round;stroke-linejoin:round" />
        <path
           d="m 279.85,204.05 c 3.8,1.93334 6.06666,5.10001 6.8,9.5 0.86666,5.33333 0.46667,11.78333 -1.2,19.35 -1.93334,8.93333 -5.1167,15.68333 -9.55,20.25 -1.83335,1.83332 -3.8167,3.25 -5.95,4.25 1.4,-1.56667 2.3,-3.11667 2.7,-4.65 l 1.45,-1.35 c 4.1,-4.2 7.0667,-10.58333 8.9,-19.15 1.56668,-7.26666 1.95,-13.36667 1.15,-18.3 -0.53333,-3.36667 -2.43333,-5.88333 -5.7,-7.55 -2.8,-1.43334 -6.16667,-2.26667 -10.1,-2.5 -3.36666,-0.16668 -5.75,0.1 -7.15,0.8 l 0.45,-2.4 c 1.76666,-0.86667 4.33334,-1.2 7.7,-1 3.86667,0.2 7.36667,1.11667 10.5,2.75 z"
           id="path6408"
           inkscape:connector-curvature="0"
           style="fill:#0d131a;stroke-linecap:round;stroke-linejoin:round" />
        <path
           d="m 256.6,245.9 c -0.0667,-0.6 0.1,-1.19999 0.5,-1.8 0.66666,-1.03333 1.91666,-1.86666 3.75,-2.5 1.83335,-0.63334 3.53336,-0.80001 5.1,-0.5 2.2,0.43334 3.46666,1.5 3.8,3.2 0.30002,1.5 0.0833,3.28333 -0.65,5.35 -0.7,1.9 -1.56667,3.38334 -2.6,4.45 -0.80002,0.86666 -1.45,1.35 -1.95,1.45 -0.73332,0.16667 -1.6333,-0.21666 -2.7,-1.15 -3.13333,-2.73333 -4.88333,-5.56666 -5.25,-8.5 z m 10.25,4.05 c 0.96665,-2.26667 1.31666,-4.03333 1.05,-5.3 -0.2,-1 -0.95,-1.63334 -2.25,-1.9 l -4.1,0.3 c -1.4,0.43334 -2.31666,1 -2.75,1.7 -0.3,0.43333 -0.36665,1.1 -0.2,2 0.16666,0.93333 0.51667,1.86667 1.05,2.8 0.6,1.06667 1.35,2 2.25,2.8 0.96667,0.80001 1.75,1.16668 2.35,1.1 0.76666,-0.1 1.63333,-1.26667 2.6,-3.5 z"
           id="path6410"
           inkscape:connector-curvature="0"
           style="fill:#0d131a;stroke-linecap:round;stroke-linejoin:round" />
        <path
           d="m 251.05,250.8 c 2.33333,1.43334 3.88333,2.76667 4.65,4 0.3,0.43334 0.33333,0.93334 0.1,1.5 -0.43333,0.93334 -2.21667,1.95 -5.35,3.05 -2.36667,0.83335 -4.21668,1.35 -5.55,1.55 l -1.2,-0.1 c -0.16667,-0.16667 -0.28334,-0.51667 -0.35,-1.05 -0.43333,-6.09999 -0.18333,-9.66666 0.75,-10.7 l 1.1,-0.45 c 1.46666,0 3.41665,0.73334 5.85,2.2 z m -0.85,1.85 c -2.7,-1.53333 -4.28333,-2.24999 -4.75,-2.15 -0.36667,0.0667 -0.58333,1 -0.65,2.8 l -0.05,4.25 c 0,0.53334 0.11667,0.8667 0.35,1 l 1.2,0 4.1,-1.2 c 2.19999,-0.76666 3.39999,-1.35 3.6,-1.75 0.2,-0.4 -1.06667,-1.38334 -3.8,-2.95 z"
           id="path6412"
           inkscape:connector-curvature="0"
           style="fill:#0d131a;stroke-linecap:round;stroke-linejoin:round" />
        <path
           d="m 267.25,251.95 c 2.73334,-0.83333 4.78333,-1.16666 6.15,-1 0.56667,0.1 0.95,0.41667 1.15,0.95 0.23333,0.73333 -0.73335,2.56666 -2.9,5.5 -2.16666,2.96667 -3.78333,4.58334 -4.85,4.85 -0.63334,0.13333 -1.85002,-0.6 -3.65,-2.2 -1.83335,-1.60002 -2.73334,-2.73335 -2.7,-3.4 0,-1 0.76667,-1.95 2.3,-2.85 0.66666,0.76667 1.4,1.15 2.2,1.15 l -2.6,1.5 1.85,2.05 c 1.16667,1.03333 1.85,1.55 2.05,1.55 0.19998,-0.0333 1.26666,-1.13334 3.2,-3.3 l 3.15,-3.85 -2.05,0.2 -4.5,1.4 1.2,-2.55 z"
           id="path6414"
           inkscape:connector-curvature="0"
           style="fill:#0d131a;stroke-linecap:round;stroke-linejoin:round" />
        <path
           d="m 199.95,25 c 4.66667,4.833334 7.83334,10.35 9.5,16.55 l -2.3,2.2 c -1.53333,-5.666668 -5.06666,-11.4 -10.6,-17.2 -5.46666,-5.766667 -11.29998,-9.9 -17.5,-12.4 -0.6,-0.266667 -0.9,-0.566667 -0.9,-0.9 0,-0.400001 0.35,-1.35 1.05,-2.85 l 1.45,-4 c 0.19999,-1.1666664 0.05,-2 -0.45,-2.5 -1.2,-1.2000002 -2.23333,-1.8000003 -3.1,-1.8 -1.33332,0.033333 -3.21665,1.166667 -5.65,3.4 -10.53334,9.666667 -17.40001,20.25 -20.6,31.75 -3.13334,11.300003 -2.50001,22.71667 1.9,34.25 L 150,71.15 c -4.90001,-11.566668 -5.66667,-23.033335 -2.3,-34.4 3.33333,-11.2 10.59999,-21.933334 21.8,-32.2 3.09999,-2.8 5.66666,-4.3 7.7,-4.5 1.63333,-0.16666668 3.23333,0.51666666 4.8,2.05 0.83333,0.8666667 1.25,1.916667 1.25,3.15 0,1.2333336 -0.83333,3.683334 -2.5,7.35 7.86667,3.133334 14.26666,7.266667 19.2,12.4 z"
           id="path6416"
           inkscape:connector-curvature="0"
           style="fill:#0d131a;stroke-linecap:round;stroke-linejoin:round" />
        <path
           d="m 73.85,194.05 c 7.8,-7.53334 17.75,-15.01667 29.85,-22.45 l 0.4,-0.25 1.3,2.15 -0.4,0.25 c -11.46667,7.03334 -21.26667,14.68333 -29.4,22.95 -11.36667,11.5 -16.850004,21.95 -16.45,31.35 0.1,2.4 0.499998,4.53333 1.2,6.4 0.799998,2.13333 2.183333,4.53332 4.15,7.2 2.63333,3.63334 6.416664,7.25001 11.35,10.85 6,4.43332 11.18333,6.65 15.55,6.65 5,0 10.73333,-1.5 17.2,-4.5 5.93333,-2.76667 9.41667,-5.2 10.45,-7.3 l 1.7,0.85 c -1.29999,2.56666 -4.95,5.41667 -10.95,8.55 -6.56667,3.36667 -12.500005,5.05 -17.8,5.05 -5.03333,0 -10.98333,-2.43333 -17.85,-7.3 -6.66666,-4.66667 -11.71666,-9.8 -15.15,-15.4 -1.866665,3.96667 -2.833332,7.31666 -2.9,10.05 -0.03333,2.63334 0.75,6.15002 2.35,10.55 4.266667,11.56666 9.85,20.4 16.75,26.5 9.03333,8.06666 19.949994,11.01664 32.75,8.85 14.26667,-2.4 24.15,-6.58333 29.65,-12.55 4.1,-4.43332 6.03333,-10.4 5.8,-17.9 l 2.5,0 c 0.19999,8.3 -2.01667,14.95 -6.65,19.95 -5.93333,6.43334 -16.23334,10.88335 -30.9,13.35 -11.933336,2.03335 -22.5,-0.0833 -31.7,-6.35 -9.5,-6.43333 -16.5,-16.6 -21,-30.5 -1.6,-4.9 -2.4,-8.93333 -2.4,-12.1 0,-2.13333 0.383335,-4.35 1.15,-6.65 0.766668,-2.43333 1.8,-4.41667 3.1,-5.95 -1.399998,-3.53333 -2.1,-6.31667 -2.1,-8.35 0,-10.73334 6.15,-22.05 18.45,-33.95 z"
           id="path6418"
           inkscape:connector-curvature="0"
           style="fill:#0d131a;stroke-linecap:round;stroke-linejoin:round" />
        <path
           d="m 142.4,69.85 19.8,0.65 c 1.9,0.03333 2.78334,0.333336 2.65,0.9 -0.1,0.56667 -0.86666,0.95 -2.3,1.15 -1.06666,0.133334 -4.68333,0.2 -10.85,0.2 l -8.9,0 c -0.96666,0 -1.64999,0.333336 -2.05,1 -0.26666,0.5 -0.11667,1.35 0.45,2.55 l 4.7,9 4.35,8.5 c 0.86667,1.93333 1,3.366664 0.4,4.3 -0.6,0.966666 -1.56666,0.01667 -2.9,-2.85 l -4.8,-9.4 -4.05,-7.9 c -1.13334,-2.56667 -1.33333,-4.533336 -0.6,-5.9 0.8,-1.466664 2.16667,-2.2 4.1,-2.2 z"
           id="path6420"
           inkscape:connector-curvature="0"
           style="fill:#0d131a;stroke-linecap:round;stroke-linejoin:round" />
        <path
           d="m 225.45,84.6 c -1.33333,-2.3 -2.71666,-4.11666 -4.15,-5.45 -4.76667,1.6 -9.38334,4.58333 -13.85,8.95 -5.23333,5.13334 -8.53333,10.733336 -9.9,16.8 6.33333,0.0667 11.78333,-0.33333 16.35,-1.2 6.13334,-1.16667 11.46667,-3.23333 16,-6.2 -0.80001,-4.833336 -2.28335,-9.13334 -4.45,-12.9 z m -29.75,20.6 c 0.96666,-6.73333 4,-12.73333 9.1,-18 4.7,-4.900005 10.16666,-8.25 16.4,-10.05 2.06666,-0.566664 2.96666,-0.48333 2.7,0.25 l -1,1.25 4.05,4.95 c 2.6,4.1 4,8.51666 4.2,13.25 0.43333,-0.4 0.86666,-0.4 1.3,0 0.43333,0.36667 0.1,1 -1,1.9 -3.5,2.96667 -8.9,5.15 -16.2,6.55 -6.26666,1.2 -12.31667,1.58333 -18.15,1.15 -0.3,0.26667 -0.58334,0.4 -0.85,0.4 -0.56667,0.0333 -0.75,-0.51667 -0.55,-1.65 z"
           id="path6422"
           inkscape:connector-curvature="0"
           style="fill:#0d131a;stroke-linecap:round;stroke-linejoin:round" />
        <path
           d="m 186.95,101.65 c -0.16667,-1.7 0.2,-4.28334 1.1,-7.75 0.9,-3.566664 1.79999,-5.68333 2.7,-6.35 0.93333,-0.7 1.61667,-0.95 2.05,-0.75 0.4,0.2 0.26667,0.749995 -0.4,1.65 -0.7,1.03333 -1.48333,2.8 -2.35,5.3 -0.93333,2.73333 -1.5,5.1 -1.7,7.1 -0.23333,2.1 -0.46667,3.18333 -0.7,3.25 -0.26667,0.0667 -0.5,-0.75 -0.7,-2.45 z"
           id="path6424"
           inkscape:connector-curvature="0"
           style="fill:#0d131a;stroke-linecap:round;stroke-linejoin:round" />
        <path
           d="m 161.75,126.1 c 0.13333,-0.86666 0.46666,-1.74999 1,-2.65 0.63333,-1.03334 1.31667,-1.73333 2.05,-2.1 l 1.65,0.05 c 0.33333,0.43334 0.14999,0.91667 -0.55,1.45 -0.46667,0.4 -1.13334,1.3 -2,2.7 l -1.65,2.2 -0.7,-0.05 0.2,-1.6 z"
           id="path6426"
           inkscape:connector-curvature="0"
           style="fill:#0d131a;stroke-linecap:round;stroke-linejoin:round" />
        <path
           d="m 237.8,114.55 c 2.5,-2.7 3.96666,-3.8 4.4,-3.3 0.2,0.20001 0.18333,0.58334 -0.05,1.15 l -1.15,1.85 c -0.90001,9.4 -4.13335,16.56667 -9.7,21.5 -4.43333,3.96666 -10.25,6.41666 -17.45,7.35 -16.96667,2.2 -31.50001,-0.55 -43.6,-8.25 -1.96666,2.33333 -3.9,3.33333 -5.8,3 -1.7,-0.33332 -4,-1.78332 -6.9,-4.35 -3.7,-3.3 -6.45,-7.10001 -8.25,-11.4 -3.86667,-9.16667 -4.48333,-19.33333 -1.85,-30.5 l 0.65,2.35 c 0.13334,0.733334 0.45,1.4 0.95,2 -0.3,2.366666 -0.45,4.68333 -0.45,6.95 0,6.76667 1.08333,12.9 3.25,18.4 1.43334,3.6 3.75,6.81667 6.95,9.65 2.93334,2.6 5.13333,3.75 6.6,3.45 0.6,-0.1 1.88334,-1.05 3.85,-2.85 2.83333,-2.7 6.36667,-4.73333 10.6,-6.1 4.13334,-1.36666 9.76667,-2.36666 16.9,-3 2.2,-0.2 5.43333,-0.26667 9.7,-0.2 7.9,0.0667 14.51667,-0.56667 19.85,-1.9 5.3,-1.3 9.13333,-3.23333 11.5,-5.8 z m -9.2,20.1 c 5.7,-4.23333 9.11667,-10.28332 10.25,-18.15 -3.43333,3.36667 -8.43333,5.68333 -15,6.95 -4.56666,0.9 -10.38333,1.33333 -17.45,1.3 -4.16668,-0.0667 -7.31667,0 -9.45,0.2 -6.63333,0.59999 -11.85,1.48333 -15.65,2.65 -4.16667,1.3 -7.4,3.15 -9.7,5.55 2.36666,2.16667 7.35,4.15 14.95,5.95 9,2.13334 17.46666,2.68334 25.4,1.65 6.7,-0.86667 12.25,-2.90001 16.65,-6.1 z"
           id="path6428"
           inkscape:connector-curvature="0"
           style="fill:#0d131a;stroke-linecap:round;stroke-linejoin:round" />
        <path
           d="m 215.35,34.55 c 5.2,-4.666669 8.86667,-8.200002 11,-10.6 1.1,-1.233333 2.51667,-2.083333 4.25,-2.55 1.7,-0.466666 3.23333,-0.45 4.6,0.05 1.66667,0.633334 2.93333,1.7 3.8,3.2 0.7,1.266666 1.05,2.666666 1.05,4.2 l -0.15,11.3 c -0.0333,5.16667 0.0667,9.016668 0.3,11.55 l -2.1,2.35 c -0.23333,-2.333333 -0.55,-7.366666 -0.95,-15.1 L 236.5,27.3 c -0.2,-1.833335 -0.93333,-3 -2.2,-3.5 -0.8,-0.3 -1.81666,-0.183333 -3.05,0.35 -1.63333,0.7 -3.28333,2.016668 -4.95,3.95 -1.96666,2.266667 -5.38333,5.466666 -10.25,9.6 -5.06666,4.266667 -8.81666,7.066666 -11.25,8.4 -1.63333,0.866667 -4.13333,1.833334 -7.5,2.9 -17.26667,5.333332 -29.70001,12.316666 -37.3,20.95 l -1.6,1.95 -3.7,0 1.75,-2.15 c 4.8,-5.433334 11.51667,-10.416668 20.15,-14.95 6.30001,-3.3 12.91668,-6.033334 19.85,-8.2 3.36667,-1.066667 5.75,-1.966665 7.15,-2.7 2.23333,-1.233332 6.15,-4.35 11.75,-9.35 z"
           id="path6430"
           inkscape:connector-curvature="0"
           style="fill:#0d131a;stroke-linecap:round;stroke-linejoin:round" />
        <path
           d="m 291.65,19.75 c 10.36666,-0.466667 17.61666,-0.550001 21.75,-0.25 5,0.433332 7.88333,1.466665 8.65,3.1 0.5,1.1 0.63332,2.183335 0.4,3.25 -0.26668,1.2 -1.05,2.583332 -2.35,4.15 -2.4,2.8 -5.4333,5.25 -9.1,7.35 -1,0.633334 -1.63333,1.066668 -1.9,1.3 -0.4333,0.366666 -0.71664,0.85 -0.85,1.45 0.0667,8.566668 -0.55,16.933333 -1.85,25.1 -2.53333,16 -8.11667,27.06666 -16.75,33.2 -8.5,6.03333 -16.1,9.46667 -22.8,10.3 -4.33334,0.56667 -8.58334,-0.0333 -12.75,-1.8 -2.26667,-0.93333 -3.13334,-1.7 -2.6,-2.3 l 3.05,0.1 c 2.66667,1.09999 5.78334,1.44999 9.35,1.05 6.3,-0.70001 13.63336,-3.65 22,-8.85 8.3,-5.16666 14.08334,-16.199995 17.35,-33.1 1.63333,-8.5 2.48334,-16.633336 2.55,-24.4 0.3,-1 0.81667,-1.85 1.55,-2.55 0.43333,-0.433332 1.21665,-0.98333 2.35,-1.65 l 3.05,-2 c 1.30002,-1 2.56668,-2.233333 3.8,-3.7 2.06667,-2.433332 2.8667,-4.216665 2.4,-5.35 -0.46666,-1 -2,-1.5 -4.6,-1.5 -6.33334,-0.166666 -13.18334,-0.15 -20.55,0.05 -14.73332,0.333335 -24.71666,1.350001 -29.95,3.05 -5.03335,1.6 -10.10002,6.016666 -15.2,13.25 -2.76667,3.966667 -5.98333,9.61667 -9.65,16.95 -1.03334,2.066666 -1.93333,3.616666 -2.7,4.65 -0.53334,0.733332 -1.1,1.116667 -1.7,1.15 -0.6,0.03333 -0.71667,-0.3 -0.35,-1 l 2.5,-5.9 c 3.93333,-7.833334 7.33333,-13.783334 10.2,-17.85 5.26667,-7.333334 10.65,-11.883335 16.15,-13.65 5.53333,-1.8 15.05,-3.000002 28.55,-3.6 z"
           id="path6432"
           inkscape:connector-curvature="0"
           style="fill:#0d131a;stroke-linecap:round;stroke-linejoin:round" />
        <path
           d="m 276.05,32 c 3.46666,-0.266666 6.53334,0.06667 9.2,1 2.66666,0.933334 4.78333,2.416668 6.35,4.45 2.2,2.766667 3.4,6.7 3.6,11.8 0.2,4.866665 -0.51668,10.533333 -2.15,17 -2.9,11.63333 -7.81666,20.416664 -14.75,26.35 -6.93333,5.93333 -14.91667,8.21667 -23.95,6.85 -1.86666,-0.3 -2.75,-0.71666 -2.65,-1.25 0.1,-0.533336 0.76667,-0.75 2,-0.65 0.3,-7.06667 -1.03333,-13.250005 -4,-18.55 -1.96666,-3.5 -3.96666,-5.816666 -6,-6.95 -0.7,0.8 -1.2,1.016666 -1.5,0.65 -0.26667,-0.3 -0.31667,-0.999995 -0.15,-2.1 0.33333,-2.13333 1.41666,-5.15 3.25,-9.05 2.1,-4.43333 4.56665,-8.633332 7.4,-12.6 7.6333,-10.7 15.41664,-16.35 23.35,-16.95 z m 13.2,7.3 c -2.83334,-3.633336 -7.23334,-5.45 -13.2,-5.45 -5.76667,0 -12.51667,5.03333 -20.25,15.1 -2.96666,3.9 -5.59999,7.949998 -7.9,12.15 -2.13334,3.966666 -3.41666,7.03333 -3.85,9.2 3.66667,1.866664 6.48334,4.68333 8.45,8.45 2.56667,4.9 3.56665,11.200005 3,18.9 7.73334,1.26667 14.88333,-1.08333 21.45,-7.05 6.56666,-6.033334 11.21666,-14.5 13.95,-25.4 3.03335,-12.033336 2.48336,-20.666667 -1.65,-25.9 z"
           id="path6434"
           inkscape:connector-curvature="0"
           style="fill:#0d131a;stroke-linecap:round;stroke-linejoin:round" />
        <path
           d="m 255.9,48.1 1.15,-1.55 c 5.03334,-1.833333 9.38335,-1.966664 13.05,-0.4 3.0667,1.333334 5.48334,3.75 7.25,7.25 1.33335,2.6 2.26667,6.233335 2.8,10.9 0.7,6.3 0.13336,12.08333 -1.7,17.35 -1.36666,3.933336 -3.3,7.26667 -5.8,10 -2.5667,2.76667 -5.9167,5.11667 -10.05,7.05 l -2.65,-0.3 c 3.96666,-1.86667 7.41664,-4.3 10.35,-7.3 3,-3.06667 5.13332,-6.433336 6.4,-10.1 1.73332,-4.96667 2.1833,-10.433334 1.35,-16.4 -0.56666,-4.233335 -1.51664,-7.650003 -2.85,-10.25 -1.73333,-3.5 -4.36666,-5.8 -7.9,-6.9 -3.46666,-1.1 -7.26664,-0.883334 -11.4,0.65 z"
           id="path6436"
           inkscape:connector-curvature="0"
           style="fill:#0d131a;stroke-linecap:round;stroke-linejoin:round" />
        <path
           d="m 219.35,205.15 c 0,-5.53333 2.28333,-10.93333 6.85,-16.2 3.06666,-3.56667 7.93333,-7.73334 14.6,-12.5 l 10.45,-8.1 c 3.73334,-3.3 6.21667,-6.16667 7.45,-8.6 l 0.4,1.9 3.35,11.2 c 2.03334,8.86666 2.61668,17.03333 1.75,24.5 -1.16664,10 -5.48333,17.86667 -12.95,23.6 -2.76666,2.13333 -5.68333,3.75 -8.75,4.85 -2.63333,0.93334 -4.76666,1.31667 -6.4,1.15 -3.69999,-0.43334 -7.03332,-1.95 -10,-4.55 -4.5,-3.96667 -6.75,-9.71667 -6.75,-17.25 z m 32.05,-33.8 -8.75,6.65 c -6.66668,4.83333 -11.26667,8.63333 -13.8,11.4 -4.26667,4.63334 -6.4,9.48335 -6.4,14.55 0,7 1.83333,12.46667 5.5,16.4 2.6,2.83333 5.38334,4.4 8.35,4.7 1.2,0.13333 2.91666,-0.21667 5.15,-1.05 2.76667,-1.03334 5.38334,-2.51668 7.85,-4.45 6.96666,-5.5 11.0333,-13.18333 12.2,-23.05 0.26666,-2.16667 0.4,-4.61667 0.4,-7.35 0,-8.26667 -1.3,-16.56667 -3.9,-24.9 -1.46667,2.26666 -3.66667,4.63333 -6.6,7.1 z"
           id="path6438"
           inkscape:connector-curvature="0"
           style="fill:#0d131a;stroke-linecap:round;stroke-linejoin:round" />
        <path
           d="m 181.05,182.45 c -3.76667,-3.9 -7.18335,-8.5 -10.25,-13.8 l 1.65,-0.95 c 2.93333,5.1 6.35,9.55 10.25,13.35 1.86667,1.86667 4.96667,4.46668 9.3,7.8 3.36667,2.63334 5.73334,4.78333 7.1,6.45 2.06667,2.6 3.31667,5.54999 3.75,8.85 0.46667,3.8 -0.23333,7.7 -2.1,11.7 -1.8,3.9 -4.3,7.03333 -7.5,9.4 -3.03334,2.2 -6.53334,3.5 -10.5,3.9 -5.59999,0.56666 -11.31665,-0.86667 -17.15,-4.3 l -0.9,-1.8 c 5.33333,2.43334 10.34999,3.61667 15.05,3.55 4.73334,-0.1 8.85,-1.43333 12.35,-4 2.86666,-2.1 5.03333,-4.83334 6.5,-8.2 1.46667,-3.36666 1.96667,-6.8 1.5,-10.3 -0.4,-3 -1.46667,-5.56666 -3.2,-7.7 -1.13334,-1.4 -3.33333,-3.36666 -6.6,-5.9 -4,-3.13333 -7.08333,-5.81667 -9.25,-8.05 z"
           id="path6440"
           inkscape:connector-curvature="0"
           style="fill:#0d131a;stroke-linecap:round;stroke-linejoin:round" />
        <path
           d="m 179.8,242.1 c -0.5,-1.06666 -1.2,-2.05 -2.1,-2.95 l 0.7,-1.55 2.7,2.8 c 1.6,2.03333 2.19999,3.61666 1.8,4.75 -0.23333,0.73333 -1.46667,1.56666 -3.7,2.5 l -5.45,1.95 0.1,-1.6 c 1.6,-0.56667 3.06666,-1.25 4.4,-2.05 1.13333,-0.7 1.8,-1.25 2,-1.65 0.13333,-0.46666 -0.0167,-1.2 -0.45,-2.2 z"
           id="path6442"
           inkscape:connector-curvature="0"
           style="fill:#0d131a;stroke-linecap:round;stroke-linejoin:round" />
        <path
           d="m 173.9,257.9 -1.35,-7.9 1.5,-1.85 1.4,5.15 c 0.9,3.53334 1.35,5.6167 1.35,6.25 l -0.25,1.5 c -0.16667,0.23333 -0.63334,0.45 -1.4,0.65 l -4.7,0.65 c -2.7,0.23334 -5.21666,0.23334 -7.55,0 l 0.8,-1.75 6.3,-0.15 c 2.2,-0.26668 3.45,-0.6167 3.75,-1.05 0.23334,-0.3 0.28334,-0.8 0.15,-1.5 z"
           id="path6444"
           inkscape:connector-curvature="0"
           style="fill:#0d131a;stroke-linecap:round;stroke-linejoin:round" />
        <path
           d="m 155.95,268.95 c -2.33333,-0.26668 -5.54999,-1.28334 -9.65,-3.05 l 1.85,-1.3 c 1.56666,0.66666 3.1,1.2 4.6,1.6 l 3.3,0.3 c 0.76667,-0.33334 1.35,-1.43335 1.75,-3.3 l 2.15,-0.5 -0.3,1.7 c -0.26667,1.26666 -0.58333,2.26666 -0.95,3 -0.36667,0.86666 -0.73334,1.38333 -1.1,1.55 l -1.65,0 z"
           id="path6446"
           inkscape:connector-curvature="0"
           style="fill:#0d131a;stroke-linecap:round;stroke-linejoin:round" />
        <path
           d="m 110.9,181.65 2.45,0.7 c -0.5,1.36666 -1.15,4.39998 -1.95,9.1 -1.2,6.9 -1.73334,13.18335 -1.6,18.85 -1.33333,2.2 -2.21666,4.35 -2.65,6.45 -1.53333,-6.33333 -1.36667,-14.11667 0.5,-23.35 l 3.25,-11.75 z"
           id="path6448"
           inkscape:connector-curvature="0"
           style="fill:#0d131a;stroke-linecap:round;stroke-linejoin:round" />
        <path
           d="m 157,192.25 c 1.33333,-6.09999 3.06667,-10.53333 5.2,-13.3 L 165,179 c -2.09999,2.73334 -3.88333,7.48334 -5.35,14.25 -1.73333,7.93333 -1.76665,14.51666 -0.1,19.75 -1.13333,-1.03334 -2.18333,-1.75 -3.15,-2.15 -1.1,-5.46667 -0.9,-11.66667 0.6,-18.6 z"
           id="path6450"
           inkscape:connector-curvature="0"
           style="fill:#0d131a;stroke-linecap:round;stroke-linejoin:round" />
        <path
           d="m 163.9,223.05 c -1.03333,-2.53334 -2.11666,-4.63334 -3.25,-6.3 -3.23333,-4.63333 -8.43333,-8.01666 -15.6,-10.15 -9.53334,-2.86666 -20.30001,-2.3 -32.3,1.7 -0.56667,0.2 -1.13333,0.76667 -1.7,1.7 -0.66666,1.09999 -1.23333,2.56665 -1.7,4.4 -0.93334,3.63334 -1.21667,7.43334 -0.85,11.4 0.36667,4.3 1.43333,7.40001 3.2,9.3 1.13334,1.23333 3.40001,4.08332 6.8,8.55 4.93333,6.4 8.56667,10.88334 10.9,13.45 4.4,4.83335 7.61668,7.1667 9.65,7 l 4.1,-0.1 c 6.19999,-0.0333 10.96665,-0.55 14.3,-1.55 5.8,-1.73333 10.16667,-5.16667 13.1,-10.3 3.73333,-6.53333 5.63332,-10.63332 5.7,-12.3 0.0667,-1.56666 -1.46667,-3.69999 -4.6,-6.4 l -0.8,-0.7 c -2.1,-1.8 -3.7,-3.56667 -4.8,-5.3 -0.66667,-1.03334 -1.38334,-2.5 -2.15,-4.4 z m -58.3,3.35 c -0.23333,-4.16668 0.2,-8.38334 1.3,-12.65 1.16667,-4.46666 2.85,-7.08333 5.05,-7.85 12.6,-4.2 23.98333,-4.73333 34.15,-1.6 7.63334,2.33333 13.16666,6 16.6,11 1.3,1.86667 2.48333,4.15 3.55,6.85 0.7,1.76667 1.34999,3.11668 1.95,4.05 0.93333,1.46666 2.35,3 4.25,4.6 l 0.85,0.75 c 3.73333,3.16667 5.58333,5.85001 5.55,8.05 -0.0667,2.16668 -2.1,6.76667 -6.1,13.8 -3.23334,5.7 -8.06667,9.5167 -14.5,11.45 -3.63333,1.1 -8.66667,1.65 -15.1,1.65 l -5.15,0 c -4.46666,0 -11.63332,-7.11667 -21.5,-21.35 -1.03333,-1.46667 -2.35,-3.03333 -3.95,-4.7 l -3.4,-3.4 c -2.1,-2.26667 -3.28333,-5.81668 -3.55,-10.65 z"
           id="path6452"
           inkscape:connector-curvature="0"
           style="fill:#0d131a;stroke-linecap:round;stroke-linejoin:round" />
        <path
           d="m 165.65,147.9 c 3.93333,3.23333 6.28333,7.73333 7.05,13.5 0.63333,4.86666 0.13333,8.91667 -1.5,12.15 -2.5,5 -8.48334,8.3 -17.95,9.9 l -25.7,1.35 -3.65,-0.05 -11.3,-0.55 c -3.16667,-0.53334 -5.48333,-1.58335 -6.95,-3.15 -1.33333,-1.43333 -2.33333,-3.2 -3,-5.3 -0.8,-2.46666 -1,-5.01666 -0.6,-7.65 1.03334,-6.43333 6.5,-13.41667 16.4,-20.95 8.23333,-6.30001 15.35,-10.31667 21.35,-12.05 3.6,-1.06666 7.35,-0.56666 11.25,1.5 2.36667,1.23333 5.86667,3.85 10.5,7.85 l 4.1,3.45 z m -13.5,33.25 c 9,-1.4 14.6,-4.3 16.8,-8.7 1.4,-2.8 1.81668,-6.36667 1.25,-10.7 -0.66667,-5.13333 -2.71668,-9.09999 -6.15,-11.9 l -4.15,-3.5 c -4.30001,-3.73333 -7.51667,-6.18333 -9.65,-7.35 -3.43333,-1.90001 -6.66667,-2.40001 -9.7,-1.5 -6.03334,1.76666 -12.91667,5.63333 -20.65,11.6 -9,6.93334 -13.71667,13.18334 -14.15,18.75 -0.43333,5.43334 0.23333,9.13334 2,11.1 1.20001,1.3 3.20001,2.2 6,2.7 l 10.15,0.6 3.65,0 24.6,-1.1 z"
           id="path6454"
           inkscape:connector-curvature="0"
           style="fill:#0d131a;stroke-linecap:round;stroke-linejoin:round" />
      </g>
    </g>
  </g>
</svg>
